G04*
G04 #@! TF.GenerationSoftware,Altium Limited,Altium Designer,21.5.1 (32)*
G04*
G04 Layer_Physical_Order=1*
G04 Layer_Color=255*
%FSLAX44Y44*%
%MOMM*%
G71*
G04*
G04 #@! TF.SameCoordinates,22C534E7-CE6D-4446-A7CC-E28F4763ED6C*
G04*
G04*
G04 #@! TF.FilePolarity,Positive*
G04*
G01*
G75*
%ADD10C,0.2000*%
%ADD11C,0.2500*%
%ADD12C,0.6000*%
%ADD13C,0.3000*%
G04:AMPARAMS|DCode=40|XSize=1.2mm|YSize=2.2mm|CornerRadius=0.084mm|HoleSize=0mm|Usage=FLASHONLY|Rotation=90.000|XOffset=0mm|YOffset=0mm|HoleType=Round|Shape=RoundedRectangle|*
%AMROUNDEDRECTD40*
21,1,1.2000,2.0320,0,0,90.0*
21,1,1.0320,2.2000,0,0,90.0*
1,1,0.1680,1.0160,0.5160*
1,1,0.1680,1.0160,-0.5160*
1,1,0.1680,-1.0160,-0.5160*
1,1,0.1680,-1.0160,0.5160*
%
%ADD40ROUNDEDRECTD40*%
G04:AMPARAMS|DCode=41|XSize=1.6mm|YSize=1.4mm|CornerRadius=0.126mm|HoleSize=0mm|Usage=FLASHONLY|Rotation=90.000|XOffset=0mm|YOffset=0mm|HoleType=Round|Shape=RoundedRectangle|*
%AMROUNDEDRECTD41*
21,1,1.6000,1.1480,0,0,90.0*
21,1,1.3480,1.4000,0,0,90.0*
1,1,0.2520,0.5740,0.6740*
1,1,0.2520,0.5740,-0.6740*
1,1,0.2520,-0.5740,-0.6740*
1,1,0.2520,-0.5740,0.6740*
%
%ADD41ROUNDEDRECTD41*%
G04:AMPARAMS|DCode=42|XSize=1.2mm|YSize=1.4mm|CornerRadius=0.108mm|HoleSize=0mm|Usage=FLASHONLY|Rotation=90.000|XOffset=0mm|YOffset=0mm|HoleType=Round|Shape=RoundedRectangle|*
%AMROUNDEDRECTD42*
21,1,1.2000,1.1840,0,0,90.0*
21,1,0.9840,1.4000,0,0,90.0*
1,1,0.2160,0.5920,0.4920*
1,1,0.2160,0.5920,-0.4920*
1,1,0.2160,-0.5920,-0.4920*
1,1,0.2160,-0.5920,0.4920*
%
%ADD42ROUNDEDRECTD42*%
G04:AMPARAMS|DCode=43|XSize=1.6mm|YSize=0.7mm|CornerRadius=0.0665mm|HoleSize=0mm|Usage=FLASHONLY|Rotation=180.000|XOffset=0mm|YOffset=0mm|HoleType=Round|Shape=RoundedRectangle|*
%AMROUNDEDRECTD43*
21,1,1.6000,0.5670,0,0,180.0*
21,1,1.4670,0.7000,0,0,180.0*
1,1,0.1330,-0.7335,0.2835*
1,1,0.1330,0.7335,0.2835*
1,1,0.1330,0.7335,-0.2835*
1,1,0.1330,-0.7335,-0.2835*
%
%ADD43ROUNDEDRECTD43*%
%ADD49R,0.9000X0.9500*%
G04:AMPARAMS|DCode=50|XSize=0.85mm|YSize=0.75mm|CornerRadius=0.0563mm|HoleSize=0mm|Usage=FLASHONLY|Rotation=0.000|XOffset=0mm|YOffset=0mm|HoleType=Round|Shape=RoundedRectangle|*
%AMROUNDEDRECTD50*
21,1,0.8500,0.6375,0,0,0.0*
21,1,0.7375,0.7500,0,0,0.0*
1,1,0.1125,0.3688,-0.3188*
1,1,0.1125,-0.3688,-0.3188*
1,1,0.1125,-0.3688,0.3188*
1,1,0.1125,0.3688,0.3188*
%
%ADD50ROUNDEDRECTD50*%
%ADD51O,0.3000X1.5000*%
%ADD52O,0.2500X1.2500*%
%ADD53O,1.2500X0.2500*%
%ADD54R,1.1000X4.8260*%
%ADD55R,1.8000X1.3000*%
%ADD56R,0.9000X0.9000*%
G04:AMPARAMS|DCode=57|XSize=0.85mm|YSize=0.75mm|CornerRadius=0.0563mm|HoleSize=0mm|Usage=FLASHONLY|Rotation=90.000|XOffset=0mm|YOffset=0mm|HoleType=Round|Shape=RoundedRectangle|*
%AMROUNDEDRECTD57*
21,1,0.8500,0.6375,0,0,90.0*
21,1,0.7375,0.7500,0,0,90.0*
1,1,0.1125,0.3188,0.3688*
1,1,0.1125,0.3188,-0.3688*
1,1,0.1125,-0.3188,-0.3688*
1,1,0.1125,-0.3188,0.3688*
%
%ADD57ROUNDEDRECTD57*%
%ADD58O,0.6000X2.0000*%
%ADD59R,0.6000X2.0000*%
%ADD60R,1.3500X0.6500*%
%ADD61R,0.8500X1.3000*%
%ADD62R,1.3000X0.8500*%
G04:AMPARAMS|DCode=63|XSize=1mm|YSize=0.6mm|CornerRadius=0.06mm|HoleSize=0mm|Usage=FLASHONLY|Rotation=0.000|XOffset=0mm|YOffset=0mm|HoleType=Round|Shape=RoundedRectangle|*
%AMROUNDEDRECTD63*
21,1,1.0000,0.4800,0,0,0.0*
21,1,0.8800,0.6000,0,0,0.0*
1,1,0.1200,0.4400,-0.2400*
1,1,0.1200,-0.4400,-0.2400*
1,1,0.1200,-0.4400,0.2400*
1,1,0.1200,0.4400,0.2400*
%
%ADD63ROUNDEDRECTD63*%
%ADD64R,0.9500X0.9000*%
%ADD65R,2.4000X2.2000*%
G04:AMPARAMS|DCode=66|XSize=0.25mm|YSize=1.5mm|CornerRadius=0.0625mm|HoleSize=0mm|Usage=FLASHONLY|Rotation=180.000|XOffset=0mm|YOffset=0mm|HoleType=Round|Shape=RoundedRectangle|*
%AMROUNDEDRECTD66*
21,1,0.2500,1.3750,0,0,180.0*
21,1,0.1250,1.5000,0,0,180.0*
1,1,0.1250,-0.0625,0.6875*
1,1,0.1250,0.0625,0.6875*
1,1,0.1250,0.0625,-0.6875*
1,1,0.1250,-0.0625,-0.6875*
%
%ADD66ROUNDEDRECTD66*%
%ADD67R,4.5000X1.7500*%
%ADD68R,0.5906X1.2002*%
%ADD69C,0.7500*%
%ADD70C,0.4000*%
%ADD71C,0.5000*%
%ADD72C,0.7000*%
%ADD73R,3.7500X1.6000*%
%ADD74R,3.7500X1.5750*%
%ADD75R,0.7000X5.8000*%
%ADD76C,1.5000*%
%ADD77R,1.5000X1.5000*%
%ADD78R,1.5000X1.5000*%
%ADD79C,0.7000*%
G36*
X644902Y182500D02*
X480122D01*
Y280201D01*
X483378Y283456D01*
X487031Y281452D01*
X487329Y279955D01*
X488581Y278081D01*
X489106Y277730D01*
X488928Y276835D01*
Y275500D01*
X500000D01*
X511072D01*
Y276835D01*
X510894Y277730D01*
X511419Y278081D01*
X512671Y279955D01*
X513111Y282165D01*
Y287835D01*
X512671Y290045D01*
X512368Y290500D01*
X512671Y290955D01*
X513111Y293165D01*
Y298835D01*
X512671Y301045D01*
X511419Y302919D01*
X510894Y303270D01*
X511072Y304165D01*
Y305500D01*
X500000D01*
Y308500D01*
X511072D01*
Y309835D01*
X510894Y310730D01*
X511419Y311081D01*
X512671Y312955D01*
X513111Y315165D01*
Y320835D01*
X512671Y323045D01*
X512368Y323500D01*
X512671Y323955D01*
X513111Y326165D01*
Y331835D01*
X512671Y334045D01*
X512368Y334500D01*
X512671Y334955D01*
X513111Y337165D01*
Y342835D01*
X512671Y345045D01*
X512368Y345500D01*
X512671Y345955D01*
X513111Y348165D01*
Y353835D01*
X512671Y356045D01*
X512368Y356500D01*
X512671Y356955D01*
X513111Y359165D01*
Y364835D01*
X512671Y367045D01*
X511419Y368919D01*
X509545Y370171D01*
X507335Y370611D01*
X492665D01*
X490455Y370171D01*
X488581Y368919D01*
X487329Y367045D01*
X486889Y364835D01*
Y359165D01*
X485418Y357372D01*
X472362D01*
X469924Y356887D01*
X467856Y355506D01*
X456252Y343901D01*
X452556Y345432D01*
Y348000D01*
X452500Y348426D01*
Y348856D01*
X452389Y349271D01*
X452333Y349697D01*
X452168Y350094D01*
X452057Y350509D01*
X451842Y350881D01*
X451678Y351278D01*
X451416Y351619D01*
X451201Y351991D01*
X450897Y352295D01*
X450636Y352636D01*
X450295Y352897D01*
X449991Y353201D01*
X449619Y353416D01*
X449278Y353678D01*
X448881Y353842D01*
X448509Y354057D01*
X448094Y354168D01*
X447697Y354333D01*
X447271Y354389D01*
X446856Y354500D01*
X446426D01*
X446000Y354556D01*
X445574Y354500D01*
X445144D01*
X443953Y358256D01*
X443822Y358852D01*
X456849Y371879D01*
X456849Y371879D01*
X458051Y373446D01*
X458807Y375270D01*
X459065Y377228D01*
Y382851D01*
X459927Y384142D01*
X460359Y386312D01*
Y393688D01*
X459927Y395858D01*
X458698Y397698D01*
X456858Y398927D01*
X454688Y399359D01*
X454581D01*
X446091Y407849D01*
X444524Y409051D01*
X442699Y409807D01*
X440742Y410065D01*
X432171D01*
X430897Y412113D01*
X430298Y414065D01*
X431384Y415947D01*
X431666Y417000D01*
X421600D01*
Y420000D01*
X418600D01*
Y430066D01*
X417547Y429784D01*
X415153Y428402D01*
X413198Y426447D01*
X412184Y424691D01*
X410955Y423833D01*
X407371Y422919D01*
X406080Y423696D01*
X405984Y424053D01*
X404602Y426447D01*
X402647Y428402D01*
X400253Y429784D01*
X397582Y430500D01*
X394818D01*
X393157Y430055D01*
X373843D01*
X372182Y430500D01*
X369418D01*
X367757Y430055D01*
X349453D01*
X349262Y429976D01*
X349209Y429850D01*
X346782Y430500D01*
X344018D01*
X341347Y429784D01*
X338953Y428402D01*
X336998Y426447D01*
X335616Y424053D01*
X334900Y421382D01*
Y418618D01*
X335616Y415947D01*
X336998Y413553D01*
X338628Y411923D01*
Y407640D01*
X334994Y404006D01*
X333613Y401939D01*
X333128Y399500D01*
Y399500D01*
X330000D01*
Y384000D01*
X329144D01*
X327491Y383557D01*
X326009Y382701D01*
X324799Y381491D01*
X322535Y378591D01*
X320856Y379000D01*
X319144D01*
X317491Y378557D01*
X316009Y377701D01*
X315000Y376692D01*
X313991Y377701D01*
X312509Y378557D01*
X310856Y379000D01*
X309000Y380856D01*
X308557Y382509D01*
X307701Y383991D01*
X306491Y385201D01*
X305009Y386057D01*
X303356Y386500D01*
X301644D01*
X299991Y386057D01*
X298509Y385201D01*
X297299Y383991D01*
X296443Y382509D01*
X296336Y382110D01*
X295821Y380730D01*
X293356Y379000D01*
X291644D01*
X289179Y380730D01*
X288664Y382110D01*
X288557Y382509D01*
X287701Y383991D01*
X286491Y385201D01*
X285009Y386057D01*
X283356Y386500D01*
X281644D01*
X279991Y386057D01*
X278509Y385201D01*
X277299Y383991D01*
X276443Y382509D01*
X276000Y380856D01*
X274144Y379000D01*
X272491Y378557D01*
X271009Y377701D01*
X269799Y376491D01*
X268943Y375009D01*
X268500Y373356D01*
X266644Y371500D01*
X264991Y371057D01*
X263509Y370201D01*
X262299Y368991D01*
X261443Y367509D01*
X261000Y365856D01*
X260866Y364134D01*
X259144Y364000D01*
X257491Y363557D01*
X256009Y362701D01*
X255000Y361692D01*
X253991Y362701D01*
X252509Y363557D01*
X250856Y364000D01*
X249144D01*
X247491Y363557D01*
X246009Y362701D01*
X244799Y361491D01*
X243943Y360009D01*
X243500Y358356D01*
Y356644D01*
X243628Y356168D01*
Y351540D01*
X244113Y349101D01*
X245494Y347034D01*
X250025Y342503D01*
X250494Y338006D01*
X249113Y335939D01*
X248628Y333500D01*
Y323500D01*
X249113Y321061D01*
X250494Y318994D01*
X252561Y317613D01*
X255000Y317128D01*
X257439Y317613D01*
X257500Y317654D01*
X257561Y317613D01*
X260000Y317128D01*
X262439Y317613D01*
X262500Y317654D01*
X262561Y317613D01*
X265000Y317128D01*
X267439Y317613D01*
X267500Y317654D01*
X267561Y317613D01*
X270000Y317128D01*
X272439Y317613D01*
X272500Y317654D01*
X272561Y317613D01*
X275000Y317128D01*
X277439Y317613D01*
X277500Y317654D01*
X277561Y317613D01*
X280000Y317128D01*
X282439Y317613D01*
X282500Y317654D01*
X282561Y317613D01*
X285000Y317128D01*
X287439Y317613D01*
X287500Y317654D01*
X287561Y317613D01*
X290000Y317128D01*
X292439Y317613D01*
X292500Y317654D01*
X292561Y317613D01*
X295000Y317128D01*
X297439Y317613D01*
X297500Y317654D01*
X297561Y317613D01*
X300000Y317128D01*
X302439Y317613D01*
X302500Y317654D01*
X302561Y317613D01*
X305000Y317128D01*
X307439Y317613D01*
X307500Y317654D01*
X307561Y317613D01*
X310000Y317128D01*
X312439Y317613D01*
X312500Y317654D01*
X312561Y317613D01*
X315000Y317128D01*
X317439Y317613D01*
X317500Y317654D01*
X317561Y317613D01*
X320000Y317128D01*
X322439Y317613D01*
X324506Y318994D01*
X327561Y317613D01*
X330000Y317128D01*
X332439Y317613D01*
X332500Y317654D01*
X332561Y317613D01*
X335000Y317128D01*
X337439Y317613D01*
X337500Y317654D01*
X337561Y317613D01*
X340000Y317128D01*
X342439Y317613D01*
X342500Y317654D01*
X342561Y317613D01*
X345000Y317128D01*
X347439Y317613D01*
X347500Y317654D01*
X347561Y317613D01*
X350000Y317128D01*
X352439Y317613D01*
X352500Y317654D01*
X352561Y317613D01*
X355000Y317128D01*
X357439Y317613D01*
X357500Y317654D01*
X357561Y317613D01*
X360000Y317128D01*
X362439Y317613D01*
X362500Y317654D01*
X362561Y317613D01*
X365000Y317128D01*
X367439Y317613D01*
X367500Y317654D01*
X367561Y317613D01*
X370000Y317128D01*
X372439Y317613D01*
X372500Y317654D01*
X372561Y317613D01*
X375000Y317128D01*
X377439Y317613D01*
X379506Y318994D01*
X380887Y321061D01*
X381372Y323500D01*
Y333500D01*
Y339860D01*
X406064Y364552D01*
X406491Y364799D01*
X407701Y366009D01*
X408557Y367491D01*
X409000Y369144D01*
Y370856D01*
X408557Y372509D01*
X407701Y373991D01*
X406491Y375201D01*
X407460Y378977D01*
X408489Y380500D01*
X430000D01*
Y380500D01*
X434000Y380902D01*
X435312Y380641D01*
X438558D01*
X440215Y376641D01*
X419651Y356077D01*
X419329Y355658D01*
X418087Y355143D01*
X416259Y353741D01*
X414857Y351913D01*
X413975Y349784D01*
X413675Y347500D01*
X413975Y345216D01*
X414174Y344735D01*
Y322859D01*
X408812D01*
X406642Y322427D01*
X404802Y321198D01*
X403818Y319725D01*
X401994Y318506D01*
X399860Y316373D01*
X388500D01*
X386061Y315887D01*
X383994Y314506D01*
X382613Y312439D01*
X382128Y310000D01*
X382613Y307561D01*
X383994Y305494D01*
X382613Y302439D01*
X382128Y300000D01*
X382613Y297561D01*
X382654Y297500D01*
X382613Y297439D01*
X382128Y295000D01*
X382613Y292561D01*
X382654Y292500D01*
X382613Y292439D01*
X382128Y290000D01*
X382613Y287561D01*
X382654Y287500D01*
X382613Y287439D01*
X382128Y285000D01*
X382613Y282561D01*
X382654Y282500D01*
X382613Y282439D01*
X382128Y280000D01*
X382613Y277561D01*
X382654Y277500D01*
X382613Y277439D01*
X382128Y275000D01*
X382613Y272561D01*
X382654Y272500D01*
X382613Y272439D01*
X382128Y270000D01*
X382613Y267561D01*
X382654Y267500D01*
X382613Y267439D01*
X382128Y265000D01*
X382613Y262561D01*
X382654Y262500D01*
X382613Y262439D01*
X382128Y260000D01*
X382613Y257561D01*
X382654Y257500D01*
X382613Y257439D01*
X382128Y255000D01*
X382613Y252561D01*
X382654Y252500D01*
X382613Y252439D01*
X382128Y250000D01*
X382613Y247561D01*
X382654Y247500D01*
X382613Y247439D01*
X382128Y245000D01*
X382613Y242561D01*
X382654Y242500D01*
X382613Y242439D01*
X382128Y240000D01*
X382613Y237561D01*
X382654Y237500D01*
X382613Y237439D01*
X382128Y235000D01*
X382613Y232561D01*
X382654Y232500D01*
X382613Y232439D01*
X382128Y230000D01*
X382613Y227561D01*
X382654Y227500D01*
X382613Y227439D01*
X382128Y225000D01*
X382613Y222561D01*
X382654Y222500D01*
X382613Y222439D01*
X382128Y220000D01*
X382613Y217561D01*
X383994Y215494D01*
X382613Y212439D01*
X382128Y210000D01*
X382613Y207561D01*
X382654Y207500D01*
X382613Y207439D01*
X382128Y205000D01*
X382613Y202561D01*
X382654Y202500D01*
X382613Y202439D01*
X382128Y200000D01*
X382613Y197561D01*
X382654Y197500D01*
X382613Y197439D01*
X382128Y195000D01*
X382613Y192561D01*
X382654Y192500D01*
X382613Y192439D01*
X382128Y190000D01*
X382613Y187561D01*
X383994Y185494D01*
X386061Y184113D01*
X388500Y183628D01*
X390990D01*
X401360Y173257D01*
X400590Y171399D01*
X400290Y169115D01*
X400590Y166831D01*
X401472Y164702D01*
X402875Y162875D01*
X402977Y161306D01*
X399915Y158569D01*
X396172Y159586D01*
X396168Y159594D01*
X396057Y160009D01*
X395842Y160381D01*
X395678Y160778D01*
X395416Y161119D01*
X395201Y161491D01*
X394897Y161795D01*
X394636Y162136D01*
X394295Y162397D01*
X393991Y162701D01*
X393619Y162916D01*
X393278Y163178D01*
X392881Y163342D01*
X392509Y163557D01*
X392094Y163668D01*
X391697Y163833D01*
X391271Y163889D01*
X390856Y164000D01*
X390426D01*
X390000Y164056D01*
X389574Y164000D01*
X389144D01*
X388729Y163889D01*
X388303Y163833D01*
X387906Y163668D01*
X387491Y163557D01*
X387119Y163342D01*
X386722Y163178D01*
X385129Y162382D01*
X381663Y164111D01*
X381372Y166500D01*
Y176500D01*
X380887Y178939D01*
X379506Y181006D01*
X377439Y182387D01*
X375000Y182873D01*
X372561Y182387D01*
X372500Y182346D01*
X372439Y182387D01*
X370000Y182873D01*
X367561Y182387D01*
X367500Y182346D01*
X367439Y182387D01*
X365000Y182873D01*
X362561Y182387D01*
X362500Y182346D01*
X362439Y182387D01*
X360000Y182873D01*
X357561Y182387D01*
X357500Y182346D01*
X357439Y182387D01*
X355000Y182873D01*
X352561Y182387D01*
X352500Y182346D01*
X352439Y182387D01*
X350000Y182873D01*
X347561Y182387D01*
X347500Y182346D01*
X347439Y182387D01*
X345000Y182873D01*
X342561Y182387D01*
X342500Y182346D01*
X342439Y182387D01*
X340000Y182873D01*
X337561Y182387D01*
X336215Y185888D01*
X336029Y186746D01*
X336887Y188030D01*
X337372Y190469D01*
Y205668D01*
X337500Y206144D01*
Y207856D01*
X337057Y209509D01*
X336201Y210991D01*
X334991Y212201D01*
X333509Y213057D01*
X331856Y213500D01*
X330144D01*
X328491Y213057D01*
X327009Y212201D01*
X326000Y211192D01*
X324991Y212201D01*
X323509Y213057D01*
X321856Y213500D01*
X320144D01*
X318491Y213057D01*
X317009Y212201D01*
X315799Y210991D01*
X314943Y209509D01*
X314500Y207856D01*
Y206144D01*
X314628Y205668D01*
Y190179D01*
X310494Y186046D01*
X309113Y183979D01*
X305183Y182836D01*
X305000Y182873D01*
X302561Y182387D01*
X302500Y182346D01*
X302439Y182387D01*
X300000Y182873D01*
X297561Y182387D01*
X297500Y182346D01*
X297439Y182387D01*
X295000Y182873D01*
X292561Y182387D01*
X292500Y182346D01*
X292439Y182387D01*
X290000Y182873D01*
X287561Y182387D01*
X287500Y182346D01*
X287439Y182387D01*
X285000Y182873D01*
X282561Y182387D01*
X282500Y182346D01*
X282439Y182387D01*
X280000Y182873D01*
X277561Y182387D01*
X277500Y182346D01*
X277439Y182387D01*
X275000Y182873D01*
X272561Y182387D01*
X272500Y182346D01*
X272439Y182387D01*
X270000Y182873D01*
X267561Y182387D01*
X267500Y182346D01*
X267439Y182387D01*
X265000Y182873D01*
X262561Y182387D01*
X262500Y182346D01*
X262439Y182387D01*
X260000Y182873D01*
X257561Y182387D01*
X257500Y182346D01*
X257439Y182387D01*
X255000Y182873D01*
X252561Y182387D01*
X250494Y181006D01*
X249113Y178939D01*
X248628Y176500D01*
Y166500D01*
X249113Y164061D01*
X250494Y161994D01*
X252561Y160613D01*
X255000Y160128D01*
X257439Y160613D01*
X257500Y160654D01*
X257561Y160613D01*
X260000Y160128D01*
X262439Y160613D01*
X262500Y160654D01*
X262561Y160613D01*
X265000Y160128D01*
X267439Y160613D01*
X267500Y160654D01*
X267561Y160613D01*
X270000Y160128D01*
X272439Y160613D01*
X272500Y160654D01*
X272561Y160613D01*
X275000Y160128D01*
X277439Y160613D01*
X277500Y160654D01*
X277561Y160613D01*
X280000Y160128D01*
X282439Y160613D01*
X282500Y160654D01*
X282561Y160613D01*
X285000Y160128D01*
X286264Y160379D01*
X287896Y159466D01*
X288256Y156960D01*
X288085Y154778D01*
X287299Y153991D01*
X286443Y152509D01*
X286145Y151397D01*
X285781Y150681D01*
X282691Y148213D01*
X282149Y148060D01*
X272000D01*
X270173Y147820D01*
X268470Y147114D01*
X267008Y145992D01*
X266507Y145492D01*
X265385Y144030D01*
X264935Y142942D01*
X264530Y142202D01*
X261687Y139820D01*
X260000D01*
Y132500D01*
X257000D01*
Y139820D01*
X255312D01*
X253923Y139543D01*
X252744Y138756D01*
X251957Y137577D01*
X251680Y136187D01*
Y132029D01*
X247680Y130372D01*
X240372Y137679D01*
Y168000D01*
X239937Y170189D01*
X240079Y170247D01*
X240158Y170439D01*
Y179949D01*
X244130Y183921D01*
X244209Y184113D01*
X244151Y184254D01*
X246006Y185494D01*
X247387Y187561D01*
X247873Y190000D01*
X247387Y192439D01*
X247346Y192500D01*
X247387Y192561D01*
X247873Y195000D01*
X247387Y197439D01*
X247346Y197500D01*
X247387Y197561D01*
X247873Y200000D01*
X249871Y203408D01*
X250884Y203803D01*
X252439Y204113D01*
X254506Y205494D01*
X266827Y217815D01*
X268208Y219882D01*
X268693Y222321D01*
Y228000D01*
X269000Y229144D01*
Y230856D01*
X268557Y232509D01*
X267701Y233991D01*
X266491Y235201D01*
X265009Y236057D01*
X263356Y236500D01*
X261644D01*
X259991Y236057D01*
X258509Y235201D01*
X257500Y234192D01*
X256491Y235201D01*
X255009Y236057D01*
X253356Y236500D01*
X251644D01*
X250449Y236763D01*
X248493Y238279D01*
X247749Y239382D01*
X247873Y240000D01*
X247387Y242439D01*
X247346Y242500D01*
X247387Y242561D01*
X247873Y245000D01*
X247387Y247439D01*
X247346Y247500D01*
X247387Y247561D01*
X247873Y250000D01*
X247387Y252439D01*
X247346Y252500D01*
X247387Y252561D01*
X247873Y255000D01*
X247387Y257439D01*
X247346Y257500D01*
X247387Y257561D01*
X247873Y260000D01*
X247387Y262439D01*
X247346Y262500D01*
X247387Y262561D01*
X247873Y265000D01*
X247387Y267439D01*
X247346Y267500D01*
X247387Y267561D01*
X247873Y270000D01*
X247387Y272439D01*
X247346Y272500D01*
X247387Y272561D01*
X247873Y275000D01*
X247387Y277439D01*
X246006Y280494D01*
X247387Y282561D01*
X247873Y285000D01*
X247387Y287439D01*
X247346Y287500D01*
X247387Y287561D01*
X247873Y290000D01*
X247387Y292439D01*
X247346Y292500D01*
X247387Y292561D01*
X247873Y295000D01*
X247387Y297439D01*
X247346Y297500D01*
X247387Y297561D01*
X247873Y300000D01*
X247387Y302439D01*
X247346Y302500D01*
X247387Y302561D01*
X247873Y305000D01*
X247387Y307439D01*
X247346Y307500D01*
X247387Y307561D01*
X247873Y310000D01*
X247387Y312439D01*
X246006Y314506D01*
X243939Y315887D01*
X241500Y316373D01*
X234372D01*
Y405360D01*
X238506Y409494D01*
X239887Y411561D01*
X240372Y414000D01*
Y416751D01*
X241198Y417302D01*
X242427Y419142D01*
X242859Y421312D01*
Y428688D01*
X242427Y430858D01*
X242398Y430902D01*
X244536Y434902D01*
X260464D01*
X262602Y430902D01*
X262573Y430858D01*
X262141Y428688D01*
Y421312D01*
X262573Y419142D01*
X263802Y417302D01*
X265642Y416073D01*
X266128Y415976D01*
Y411832D01*
X266000Y411356D01*
Y409644D01*
X266443Y407991D01*
X267299Y406509D01*
X268509Y405299D01*
X269991Y404443D01*
X271644Y404000D01*
X273356D01*
X275009Y404443D01*
X276491Y405299D01*
X277701Y406509D01*
X278557Y407991D01*
X279000Y409644D01*
Y411356D01*
X278872Y411832D01*
Y414049D01*
X280812Y415641D01*
X287188D01*
X289358Y416073D01*
X291198Y417302D01*
X291328Y417498D01*
X295687Y417801D01*
X297994Y415494D01*
X300061Y414113D01*
X302500Y413628D01*
X309500D01*
Y409500D01*
X330500D01*
Y426612D01*
X330500Y430229D01*
X330691Y430309D01*
X331100Y431135D01*
X331546Y431994D01*
X332812Y433430D01*
X334191Y434809D01*
X334191Y434809D01*
X334230Y434902D01*
X337519Y434902D01*
X644902D01*
Y182500D01*
D02*
G37*
G36*
X104500Y432500D02*
Y426500D01*
X112000D01*
Y425000D01*
X113500D01*
Y417500D01*
X118500D01*
Y415500D01*
X137500D01*
Y415793D01*
X140389Y416940D01*
X141500Y417170D01*
X143142Y416073D01*
X145312Y415641D01*
X151687D01*
X153858Y416073D01*
X155000Y416836D01*
X156142Y416073D01*
X158313Y415641D01*
X161274D01*
X164550Y412364D01*
X165899Y411329D01*
X180194Y397034D01*
Y354750D01*
X177250D01*
Y353793D01*
X175216Y353525D01*
X173949Y353000D01*
X138000D01*
X105372Y320372D01*
X101372Y322029D01*
Y326168D01*
X101500Y326644D01*
Y328356D01*
X101057Y330009D01*
X100201Y331491D01*
X98991Y332701D01*
X98724Y334731D01*
X109537Y345544D01*
X111060Y346175D01*
X117500D01*
X119784Y346475D01*
X121913Y347357D01*
X123741Y348759D01*
X125143Y350587D01*
X126025Y352716D01*
X126326Y355000D01*
X126025Y357284D01*
X125143Y359413D01*
X123741Y361241D01*
X121913Y362643D01*
X119784Y363525D01*
X117500Y363825D01*
X110557D01*
X91874Y382509D01*
X91739Y382565D01*
X91683Y382700D01*
X91682Y382700D01*
X91491Y382780D01*
X91058D01*
X91057Y382780D01*
X90931Y382727D01*
X90201Y383991D01*
X88991Y385201D01*
X87509Y386057D01*
X85856Y386500D01*
X84415D01*
X84336Y386691D01*
X84144Y386771D01*
X67178D01*
X63034Y390914D01*
X62701Y391491D01*
X61491Y392701D01*
X60009Y393557D01*
X58356Y394000D01*
X56644D01*
X55098Y393586D01*
X54101Y393387D01*
X52034Y392006D01*
X33789Y373761D01*
X32798Y373635D01*
X28994Y374623D01*
X28402Y375647D01*
X26447Y377602D01*
X24053Y378984D01*
X21382Y379700D01*
X18618D01*
X15947Y378984D01*
X13553Y377602D01*
X11598Y375647D01*
X10216Y373253D01*
X9500Y370582D01*
Y367818D01*
X9945Y366157D01*
Y346843D01*
X9500Y345182D01*
Y342418D01*
X9945Y340757D01*
Y321443D01*
X9500Y319782D01*
Y317018D01*
X9945Y315357D01*
Y296043D01*
X9500Y294382D01*
Y291618D01*
X9945Y289957D01*
Y270643D01*
X9500Y268982D01*
Y266218D01*
X9945Y264557D01*
Y245243D01*
X9500Y243582D01*
Y240818D01*
X9945Y239157D01*
Y219843D01*
X9500Y218182D01*
Y215418D01*
X9945Y213757D01*
Y194443D01*
X9500Y192782D01*
Y190018D01*
X9945Y188357D01*
Y169043D01*
X9500Y167382D01*
Y164618D01*
X9945Y162957D01*
Y143643D01*
X9500Y141982D01*
Y139218D01*
X9945Y137557D01*
Y118243D01*
X9500Y116582D01*
Y113818D01*
X9945Y112157D01*
Y92843D01*
X9500Y91182D01*
Y88418D01*
X9945Y86757D01*
Y68453D01*
X10024Y68261D01*
X10150Y68209D01*
X9500Y65782D01*
Y63018D01*
X10216Y60347D01*
X11598Y57953D01*
X13553Y55998D01*
X15947Y54616D01*
X18618Y53900D01*
X21382D01*
X24053Y54616D01*
X25714Y55574D01*
X63944D01*
X71175Y48344D01*
Y30500D01*
X69500D01*
Y9500D01*
X90500D01*
Y30500D01*
X88826D01*
Y52000D01*
X92512Y54641D01*
X93234D01*
X93438Y54438D01*
X95213Y53075D01*
X97281Y52219D01*
X97500Y52190D01*
Y51250D01*
X112506D01*
X113039Y50555D01*
X114365Y46701D01*
X113154Y45491D01*
X112299Y44009D01*
X111856Y42356D01*
Y40644D01*
X112205Y39339D01*
Y28255D01*
X110398Y26447D01*
X109016Y24053D01*
X108300Y21382D01*
Y18618D01*
X109016Y15947D01*
X110398Y13553D01*
X112353Y11598D01*
X114747Y10216D01*
X117418Y9500D01*
X119912D01*
X119991Y9309D01*
X120182Y9229D01*
X142818D01*
X143009Y9309D01*
X143088Y9500D01*
X145582D01*
X148253Y10216D01*
X150647Y11598D01*
X152602Y13553D01*
X153984Y15947D01*
X154700Y18618D01*
Y21382D01*
X153984Y24053D01*
X152602Y26447D01*
X150647Y28402D01*
X150150Y28689D01*
Y46691D01*
X190433D01*
X190583Y46721D01*
X190737Y46706D01*
X191165Y46837D01*
X191603Y46924D01*
X191731Y47010D01*
X191878Y47054D01*
X192223Y47339D01*
X192596Y47587D01*
X192681Y47715D01*
X192800Y47813D01*
X193833Y49076D01*
X193904Y49209D01*
X194011Y49315D01*
X194183Y49732D01*
X194394Y50129D01*
X194409Y50279D01*
X194466Y50418D01*
X194466Y50868D01*
X194510Y51317D01*
X194466Y51461D01*
X194466Y51612D01*
X194047Y53709D01*
Y53710D01*
X194047Y53710D01*
X194047Y53712D01*
X193833Y54225D01*
X193590Y54812D01*
X193589Y54813D01*
X193589Y54814D01*
X193167Y55236D01*
X192746Y55656D01*
X192553Y55785D01*
X192500Y56051D01*
Y61486D01*
X192448Y61749D01*
X194453Y65749D01*
X197547D01*
Y65749D01*
X213453D01*
Y67691D01*
X220151D01*
X221180Y66438D01*
Y64750D01*
X235820D01*
Y66438D01*
X236849Y67691D01*
X240000D01*
X242863Y65371D01*
X243378Y64595D01*
Y52389D01*
X239860Y48872D01*
X233832D01*
X233356Y49000D01*
X231644D01*
X229991Y48557D01*
X228509Y47701D01*
X227299Y46491D01*
X226443Y45009D01*
X226000Y43356D01*
Y41644D01*
X226443Y39991D01*
X226778Y39412D01*
Y27827D01*
X225398Y26447D01*
X224016Y24053D01*
X223300Y21382D01*
Y18618D01*
X224016Y15947D01*
X225398Y13553D01*
X227353Y11598D01*
X229747Y10216D01*
X232418Y9500D01*
X235182D01*
X237609Y10150D01*
X237661Y10024D01*
X237853Y9945D01*
X255147D01*
X255338Y10024D01*
X255391Y10150D01*
X257818Y9500D01*
X260582D01*
X263253Y10216D01*
X265647Y11598D01*
X267602Y13553D01*
X268984Y15947D01*
X269700Y18618D01*
Y21382D01*
X268984Y24053D01*
X267602Y26447D01*
X265972Y28077D01*
Y37500D01*
X281450D01*
X281450Y37500D01*
X285450Y37523D01*
X286150Y37431D01*
X288238Y37706D01*
X290184Y38512D01*
X291856Y39794D01*
X293144D01*
X294816Y38512D01*
X296762Y37706D01*
X298850Y37431D01*
X300938Y37706D01*
X302885Y38512D01*
X303749Y39175D01*
X306870Y40970D01*
X309209Y39848D01*
X310050Y39681D01*
Y52500D01*
Y66266D01*
X307449Y68008D01*
X307141Y68508D01*
Y72758D01*
X312143Y77761D01*
X313087Y78336D01*
X315009Y78943D01*
X317165Y79729D01*
X330000Y79729D01*
X330641Y76034D01*
Y75813D01*
X331073Y73642D01*
X332302Y71802D01*
X333321Y71122D01*
X332957Y70578D01*
X332680Y69187D01*
Y67500D01*
X340000D01*
Y66000D01*
X341500D01*
Y59180D01*
X343688D01*
X345078Y59457D01*
X346800Y58652D01*
X348573Y57059D01*
X348444Y56082D01*
Y55000D01*
X348500Y54574D01*
Y54144D01*
X348611Y53729D01*
X348667Y53303D01*
X348832Y52906D01*
X348943Y52491D01*
X349158Y52119D01*
X349322Y51722D01*
X349584Y51381D01*
X349799Y51009D01*
X350103Y50705D01*
X350364Y50364D01*
X350705Y50103D01*
X351009Y49799D01*
X351381Y49584D01*
X351722Y49322D01*
X352119Y49158D01*
X352491Y48943D01*
X352906Y48832D01*
X353303Y48667D01*
X353729Y48611D01*
X354144Y48500D01*
X354574D01*
X355000Y48444D01*
X355426Y48500D01*
X355856D01*
X356271Y48611D01*
X356697Y48667D01*
X357094Y48832D01*
X357509Y48943D01*
X357881Y49158D01*
X358278Y49322D01*
X358619Y49584D01*
X358991Y49799D01*
X359965Y50200D01*
X361722Y49322D01*
X362119Y49158D01*
X362491Y48943D01*
X362906Y48832D01*
X363303Y48667D01*
X363729Y48611D01*
X364144Y48500D01*
X364574D01*
X365000Y48444D01*
X365426Y48500D01*
X365856D01*
X366271Y48611D01*
X366697Y48667D01*
X367094Y48832D01*
X367509Y48943D01*
X367782Y49100D01*
X367908Y49169D01*
X368278Y49322D01*
X371299Y51009D01*
X372509Y49799D01*
X373991Y48943D01*
X375644Y48500D01*
X377356D01*
X378787Y48884D01*
X379939Y49113D01*
X382006Y50494D01*
X382160Y50648D01*
X385055Y50933D01*
X393244Y42744D01*
X395311Y41363D01*
X397750Y40877D01*
X422296D01*
X422375Y40686D01*
X422567Y40607D01*
X437010D01*
X442500Y35117D01*
Y5098D01*
X5098D01*
Y434902D01*
X101495D01*
X104500Y432500D01*
D02*
G37*
G36*
X192500Y135000D02*
Y117250D01*
X191723Y116654D01*
X191330Y116576D01*
X190337Y115913D01*
X189674Y114920D01*
X189515Y114118D01*
X189449Y114032D01*
X188693Y112208D01*
X188435Y110250D01*
Y95815D01*
X173062D01*
X172859Y96062D01*
Y102437D01*
X172427Y104608D01*
X171198Y106448D01*
X170180Y107128D01*
X170543Y107673D01*
X170820Y109062D01*
Y110750D01*
X163500D01*
X156180D01*
Y109062D01*
X156452Y107697D01*
X156299Y107468D01*
X155169Y106009D01*
X152958Y105792D01*
X151000Y107750D01*
Y128396D01*
X158982Y136377D01*
X165250D01*
X167689Y136863D01*
X169756Y138244D01*
X174262Y142750D01*
X184750D01*
X192500Y135000D01*
D02*
G37*
G36*
X154203Y80750D02*
X154141Y80437D01*
Y74062D01*
X154573Y71892D01*
X155802Y70052D01*
X156820Y69372D01*
X156457Y68828D01*
X156180Y67438D01*
Y65750D01*
X170820D01*
Y67438D01*
X170543Y68828D01*
X170180Y69372D01*
X171198Y70052D01*
X172427Y71892D01*
X172859Y74062D01*
Y80437D01*
X173062Y80685D01*
X188047D01*
Y65749D01*
X188435D01*
Y65250D01*
X188693Y63292D01*
X189441Y61486D01*
Y55750D01*
X189674Y54579D01*
X190337Y53587D01*
X191047Y53113D01*
X191466Y51013D01*
X190433Y49750D01*
X149917D01*
X149665Y51017D01*
X149464Y51318D01*
X149413Y51509D01*
X148557Y52991D01*
X147347Y54201D01*
X145865Y55057D01*
X144212Y55500D01*
X142500D01*
X140847Y55057D01*
X139365Y54201D01*
X138154Y52991D01*
X137299Y51509D01*
X136856Y49856D01*
Y49750D01*
X130722D01*
X129125Y51519D01*
Y53231D01*
X128997Y53707D01*
Y62750D01*
X129000D01*
Y70000D01*
Y77250D01*
X128122D01*
Y82750D01*
X152562D01*
X154203Y80750D01*
D02*
G37*
%LPC*%
G36*
X424600Y430066D02*
Y423000D01*
X431666D01*
X431384Y424053D01*
X430002Y426447D01*
X428047Y428402D01*
X425653Y429784D01*
X424600Y430066D01*
D02*
G37*
G36*
X611160Y428075D02*
X602500D01*
Y420500D01*
X615075D01*
Y424160D01*
X614777Y425658D01*
X613928Y426928D01*
X612658Y427777D01*
X611160Y428075D01*
D02*
G37*
G36*
X599500D02*
X590840D01*
X589342Y427777D01*
X588072Y426928D01*
X587223Y425658D01*
X586925Y424160D01*
Y420500D01*
X599500D01*
Y428075D01*
D02*
G37*
G36*
X615075Y417500D02*
X602500D01*
Y409925D01*
X611160D01*
X612658Y410223D01*
X613928Y411072D01*
X614777Y412342D01*
X615075Y413840D01*
Y417500D01*
D02*
G37*
G36*
X599500D02*
X586925D01*
Y413840D01*
X587223Y412342D01*
X588072Y411072D01*
X589342Y410223D01*
X590840Y409925D01*
X599500D01*
Y417500D01*
D02*
G37*
G36*
X510740Y419083D02*
X506500D01*
Y409500D01*
X515083D01*
Y414740D01*
X514753Y416402D01*
X513811Y417811D01*
X512402Y418753D01*
X510740Y419083D01*
D02*
G37*
G36*
X503500D02*
X499260D01*
X497598Y418753D01*
X496189Y417811D01*
X495247Y416402D01*
X494916Y414740D01*
Y409500D01*
X503500D01*
Y419083D01*
D02*
G37*
G36*
X515083Y406500D02*
X506500D01*
Y396917D01*
X510740D01*
X512402Y397247D01*
X513811Y398189D01*
X514753Y399598D01*
X515083Y401260D01*
Y406500D01*
D02*
G37*
G36*
X503500D02*
X494916D01*
Y401260D01*
X495247Y399598D01*
X496189Y398189D01*
X497598Y397247D01*
X499260Y396917D01*
X503500D01*
Y406500D01*
D02*
G37*
G36*
X606053Y378000D02*
X603947D01*
X601912Y377455D01*
X600088Y376402D01*
X598598Y374912D01*
X597545Y373088D01*
X597000Y371053D01*
Y368947D01*
X597545Y366912D01*
X598598Y365088D01*
X600088Y363598D01*
X601912Y362545D01*
X603947Y362000D01*
X606053D01*
X608088Y362545D01*
X609912Y363598D01*
X611402Y365088D01*
X612455Y366912D01*
X613000Y368947D01*
Y371053D01*
X612455Y373088D01*
X611402Y374912D01*
X609912Y376402D01*
X608088Y377455D01*
X606053Y378000D01*
D02*
G37*
G36*
Y298000D02*
X603947D01*
X601912Y297455D01*
X600088Y296402D01*
X598598Y294912D01*
X597545Y293088D01*
X597000Y291053D01*
Y288947D01*
X597545Y286912D01*
X598598Y285088D01*
X600088Y283598D01*
X601912Y282545D01*
X603947Y282000D01*
X606053D01*
X608088Y282545D01*
X609912Y283598D01*
X611402Y285088D01*
X612455Y286912D01*
X613000Y288947D01*
Y291053D01*
X612455Y293088D01*
X611402Y294912D01*
X609912Y296402D01*
X608088Y297455D01*
X606053Y298000D01*
D02*
G37*
G36*
X511072Y272500D02*
X500000D01*
X488928D01*
Y271165D01*
X489213Y269735D01*
X490023Y268523D01*
X491235Y267713D01*
X492665Y267428D01*
X493682D01*
X494920Y265920D01*
Y262500D01*
X505000D01*
X515080D01*
Y265920D01*
X514763Y267512D01*
X513862Y268862D01*
X512512Y269763D01*
X511072Y271165D01*
Y272500D01*
D02*
G37*
G36*
X611160Y269075D02*
X602500D01*
Y261500D01*
X615075D01*
Y265160D01*
X614777Y266658D01*
X613928Y267928D01*
X612658Y268777D01*
X611160Y269075D01*
D02*
G37*
G36*
X599500D02*
X590840D01*
X589342Y268777D01*
X588072Y267928D01*
X587223Y266658D01*
X586925Y265160D01*
Y261500D01*
X599500D01*
Y269075D01*
D02*
G37*
G36*
X515080Y259500D02*
X506500D01*
Y251920D01*
X510920D01*
X512512Y252237D01*
X513862Y253139D01*
X514763Y254488D01*
X515080Y256080D01*
Y259500D01*
D02*
G37*
G36*
X503500D02*
X494920D01*
Y256080D01*
X495237Y254488D01*
X496138Y253139D01*
X497488Y252237D01*
X499080Y251920D01*
X503500D01*
Y259500D01*
D02*
G37*
G36*
X615075Y258500D02*
X602500D01*
Y250925D01*
X611160D01*
X612658Y251223D01*
X613928Y252071D01*
X614777Y253342D01*
X615075Y254840D01*
Y258500D01*
D02*
G37*
G36*
X599500D02*
X586925D01*
Y254840D01*
X587223Y253342D01*
X588072Y252071D01*
X589342Y251223D01*
X590840Y250925D01*
X599500D01*
Y258500D01*
D02*
G37*
G36*
X631382Y240900D02*
X628618D01*
X625947Y240184D01*
X623553Y238802D01*
X621598Y236847D01*
X620216Y234453D01*
X619500Y231782D01*
Y229018D01*
X620216Y226347D01*
X621598Y223953D01*
X623553Y221998D01*
X625947Y220616D01*
X628618Y219900D01*
X631382D01*
X634053Y220616D01*
X636447Y221998D01*
X638402Y223953D01*
X639784Y226347D01*
X640500Y229018D01*
Y231782D01*
X639784Y234453D01*
X638402Y236847D01*
X636447Y238802D01*
X634053Y240184D01*
X631382Y240900D01*
D02*
G37*
G36*
X640500Y215500D02*
X619500D01*
Y194500D01*
X640500D01*
Y215500D01*
D02*
G37*
G36*
X110500Y423500D02*
X104500D01*
Y417500D01*
X110500D01*
Y423500D01*
D02*
G37*
G36*
X30500Y430500D02*
X9500D01*
Y409500D01*
X30500D01*
Y430500D01*
D02*
G37*
G36*
X21382Y405100D02*
X18618D01*
X15947Y404384D01*
X13553Y403002D01*
X11598Y401047D01*
X10216Y398653D01*
X9500Y395982D01*
Y393218D01*
X10216Y390547D01*
X11598Y388153D01*
X13553Y386198D01*
X15947Y384816D01*
X18618Y384100D01*
X21382D01*
X24053Y384816D01*
X26447Y386198D01*
X28402Y388153D01*
X29784Y390547D01*
X30500Y393218D01*
Y395982D01*
X29784Y398653D01*
X28402Y401047D01*
X26447Y403002D01*
X24053Y404384D01*
X21382Y405100D01*
D02*
G37*
G36*
X338500Y64500D02*
X332680D01*
Y62812D01*
X332957Y61423D01*
X333744Y60244D01*
X334923Y59457D01*
X336313Y59180D01*
X338500D01*
Y64500D01*
D02*
G37*
G36*
X235820Y61750D02*
X230000D01*
Y56430D01*
X232188D01*
X233578Y56707D01*
X234756Y57494D01*
X235543Y58672D01*
X235820Y60062D01*
Y61750D01*
D02*
G37*
G36*
X227000D02*
X221180D01*
Y60062D01*
X221457Y58672D01*
X222244Y57494D01*
X223423Y56707D01*
X224813Y56430D01*
X227000D01*
Y61750D01*
D02*
G37*
G36*
X313050Y65319D02*
Y54000D01*
X317668D01*
Y59500D01*
X317202Y61841D01*
X315876Y63826D01*
X313891Y65152D01*
X313050Y65319D01*
D02*
G37*
G36*
X23000Y49067D02*
Y42000D01*
X30066D01*
X29784Y43053D01*
X28402Y45447D01*
X26447Y47402D01*
X24053Y48784D01*
X23000Y49067D01*
D02*
G37*
G36*
X17000D02*
X15947Y48784D01*
X13553Y47402D01*
X11598Y45447D01*
X10216Y43053D01*
X9934Y42000D01*
X17000D01*
Y49067D01*
D02*
G37*
G36*
X317668Y51000D02*
X313050D01*
Y39681D01*
X313891Y39848D01*
X315876Y41174D01*
X317202Y43159D01*
X317668Y45500D01*
Y51000D01*
D02*
G37*
G36*
X17000Y36000D02*
X9934D01*
X10216Y34947D01*
X11598Y32553D01*
X13553Y30598D01*
X15947Y29216D01*
X17000Y28933D01*
Y36000D01*
D02*
G37*
G36*
X30066D02*
X23000D01*
Y28933D01*
X24053Y29216D01*
X26447Y30598D01*
X28402Y32553D01*
X29784Y34947D01*
X30066Y36000D01*
D02*
G37*
G36*
X435500Y30500D02*
X428000D01*
Y23000D01*
X435500D01*
Y30500D01*
D02*
G37*
G36*
X320500D02*
X313000D01*
Y23000D01*
X320500D01*
Y30500D01*
D02*
G37*
G36*
X205500D02*
X198000D01*
Y23000D01*
X205500D01*
Y30500D01*
D02*
G37*
G36*
X57600Y30066D02*
Y23000D01*
X64667D01*
X64384Y24053D01*
X63002Y26447D01*
X61047Y28402D01*
X58653Y29784D01*
X57600Y30066D01*
D02*
G37*
G36*
X51600Y30066D02*
X50547Y29784D01*
X48153Y28402D01*
X46198Y26447D01*
X44816Y24053D01*
X44533Y23000D01*
X51600D01*
Y30066D01*
D02*
G37*
G36*
X307000Y30500D02*
X299500D01*
Y23000D01*
X307000D01*
Y30500D01*
D02*
G37*
G36*
X192000D02*
X184500D01*
Y23000D01*
X192000D01*
Y30500D01*
D02*
G37*
G36*
X422000D02*
X414500D01*
Y23000D01*
X422000D01*
Y30500D01*
D02*
G37*
G36*
X51600Y17000D02*
X44534D01*
X44816Y15947D01*
X46198Y13553D01*
X48153Y11598D01*
X50547Y10216D01*
X51600Y9934D01*
Y17000D01*
D02*
G37*
G36*
X64667D02*
X57600D01*
Y9934D01*
X58653Y10216D01*
X61047Y11598D01*
X63002Y13553D01*
X64384Y15947D01*
X64667Y17000D01*
D02*
G37*
G36*
X435500D02*
X428000D01*
Y9500D01*
X435500D01*
Y17000D01*
D02*
G37*
G36*
X422000D02*
X414500D01*
Y9500D01*
X422000D01*
Y17000D01*
D02*
G37*
G36*
X400982Y30500D02*
X398218D01*
X395547Y29784D01*
X393153Y28402D01*
X391198Y26447D01*
X389816Y24053D01*
X389100Y21382D01*
Y18618D01*
X389816Y15947D01*
X391198Y13553D01*
X393153Y11598D01*
X395547Y10216D01*
X398218Y9500D01*
X400982D01*
X403653Y10216D01*
X406047Y11598D01*
X408002Y13553D01*
X409384Y15947D01*
X410100Y18618D01*
Y21382D01*
X409384Y24053D01*
X408002Y26447D01*
X406047Y28402D01*
X403653Y29784D01*
X400982Y30500D01*
D02*
G37*
G36*
X375582D02*
X372818D01*
X370147Y29784D01*
X367753Y28402D01*
X365798Y26447D01*
X364416Y24053D01*
X363700Y21382D01*
Y18618D01*
X364416Y15947D01*
X365798Y13553D01*
X367753Y11598D01*
X370147Y10216D01*
X372818Y9500D01*
X375582D01*
X378253Y10216D01*
X380647Y11598D01*
X382602Y13553D01*
X383984Y15947D01*
X384700Y18618D01*
Y21382D01*
X383984Y24053D01*
X382602Y26447D01*
X380647Y28402D01*
X378253Y29784D01*
X375582Y30500D01*
D02*
G37*
G36*
X350182D02*
X347418D01*
X344747Y29784D01*
X342353Y28402D01*
X340398Y26447D01*
X339016Y24053D01*
X338300Y21382D01*
Y18618D01*
X339016Y15947D01*
X340398Y13553D01*
X342353Y11598D01*
X344747Y10216D01*
X347418Y9500D01*
X350182D01*
X352853Y10216D01*
X355247Y11598D01*
X357202Y13553D01*
X358584Y15947D01*
X359300Y18618D01*
Y21382D01*
X358584Y24053D01*
X357202Y26447D01*
X355247Y28402D01*
X352853Y29784D01*
X350182Y30500D01*
D02*
G37*
G36*
X320500Y17000D02*
X313000D01*
Y9500D01*
X320500D01*
Y17000D01*
D02*
G37*
G36*
X307000D02*
X299500D01*
Y9500D01*
X307000D01*
Y17000D01*
D02*
G37*
G36*
X285982Y30500D02*
X283218D01*
X280547Y29784D01*
X278153Y28402D01*
X276198Y26447D01*
X274816Y24053D01*
X274100Y21382D01*
Y18618D01*
X274816Y15947D01*
X276198Y13553D01*
X278153Y11598D01*
X280547Y10216D01*
X283218Y9500D01*
X285982D01*
X288653Y10216D01*
X291047Y11598D01*
X293002Y13553D01*
X294384Y15947D01*
X295100Y18618D01*
Y21382D01*
X294384Y24053D01*
X293002Y26447D01*
X291047Y28402D01*
X288653Y29784D01*
X285982Y30500D01*
D02*
G37*
G36*
X205500Y17000D02*
X198000D01*
Y9500D01*
X205500D01*
Y17000D01*
D02*
G37*
G36*
X192000D02*
X184500D01*
Y9500D01*
X192000D01*
Y17000D01*
D02*
G37*
G36*
X170982Y30500D02*
X168218D01*
X165547Y29784D01*
X163153Y28402D01*
X161198Y26447D01*
X159816Y24053D01*
X159100Y21382D01*
Y18618D01*
X159816Y15947D01*
X161198Y13553D01*
X163153Y11598D01*
X165547Y10216D01*
X168218Y9500D01*
X170982D01*
X173653Y10216D01*
X176047Y11598D01*
X178002Y13553D01*
X179384Y15947D01*
X180100Y18618D01*
Y21382D01*
X179384Y24053D01*
X178002Y26447D01*
X176047Y28402D01*
X173653Y29784D01*
X170982Y30500D01*
D02*
G37*
G36*
X167188Y119070D02*
X165000D01*
Y113750D01*
X170820D01*
Y115437D01*
X170543Y116827D01*
X169756Y118006D01*
X168578Y118793D01*
X167188Y119070D01*
D02*
G37*
G36*
X162000D02*
X159813D01*
X158422Y118793D01*
X157244Y118006D01*
X156457Y116827D01*
X156180Y115437D01*
Y113750D01*
X162000D01*
Y119070D01*
D02*
G37*
G36*
X141500Y77250D02*
X135000D01*
Y73000D01*
X141500D01*
Y77250D01*
D02*
G37*
G36*
Y67000D02*
X135000D01*
Y62750D01*
X141500D01*
Y67000D01*
D02*
G37*
G36*
X170820Y62750D02*
X165000D01*
Y57430D01*
X167188D01*
X168578Y57707D01*
X169756Y58494D01*
X170543Y59672D01*
X170820Y61062D01*
Y62750D01*
D02*
G37*
G36*
X162000D02*
X156180D01*
Y61062D01*
X156457Y59672D01*
X157244Y58494D01*
X158422Y57707D01*
X159813Y57430D01*
X162000D01*
Y62750D01*
D02*
G37*
%LPD*%
D10*
X0Y0D02*
Y440000D01*
Y0D02*
X650000D01*
X0Y440000D02*
X650000D01*
Y0D02*
Y440000D01*
D11*
X90000Y297000D02*
X94750Y292250D01*
Y273500D02*
Y292250D01*
X82500Y300644D02*
Y301234D01*
X95000Y313734D02*
Y327500D01*
X82500Y301234D02*
X95000Y313734D01*
X74750Y292894D02*
X82500Y300644D01*
X79750Y284750D02*
X84000Y289000D01*
X79750Y202750D02*
Y284750D01*
X300500Y150000D02*
X303500Y153000D01*
X390000Y90469D02*
X397250Y83219D01*
X390000Y90469D02*
Y91000D01*
X397250Y69000D02*
Y83219D01*
X400000Y93460D02*
Y100000D01*
X400250Y87290D02*
Y93210D01*
X400000Y93460D02*
X400250Y93210D01*
Y87290D02*
X410250Y77290D01*
X311500Y153000D02*
X314000Y150500D01*
X310000Y154465D02*
X311465Y153000D01*
X310000Y154465D02*
Y171500D01*
X311465Y153000D02*
X311500D01*
X310000Y171500D02*
Y182500D01*
X314000Y150000D02*
Y150500D01*
X331000Y190469D02*
Y207000D01*
X320000Y179469D02*
X331000Y190469D01*
X315000Y181540D02*
X321000Y187540D01*
Y207000D01*
X217143Y409643D02*
X217500Y410000D01*
X217143Y343893D02*
Y409643D01*
X228000Y312000D02*
X230000Y310000D01*
X228000Y408000D02*
X234000Y414000D01*
X228000Y312000D02*
Y408000D01*
X20000Y140600D02*
X49750Y170350D01*
Y303249D01*
X37250Y311962D02*
Y329818D01*
X42250Y309891D02*
Y327747D01*
X46750Y332247D01*
X37250Y329818D02*
X41750Y334318D01*
X32250Y314033D02*
Y332362D01*
X36750Y336862D01*
X41750Y334318D02*
Y342710D01*
X56540Y357500D01*
X46750Y332247D02*
Y336750D01*
X49875Y310445D02*
Y328301D01*
X67500Y345926D01*
X36750Y336862D02*
Y347710D01*
X31750Y338933D02*
Y349781D01*
X59875Y319773D02*
X85000Y344898D01*
X20000Y327183D02*
X31750Y338933D01*
X54875Y321844D02*
X77500Y344469D01*
X54875Y308374D02*
Y321844D01*
X59875Y306303D02*
Y319773D01*
X20000Y318400D02*
Y327183D01*
X28000Y309783D02*
X32250Y314033D01*
X33000Y280600D02*
Y307712D01*
X20000Y267600D02*
X33000Y280600D01*
X20000Y242200D02*
X38000Y260200D01*
X33000Y307712D02*
X37250Y311962D01*
X28000Y301000D02*
Y309783D01*
X20000Y293000D02*
X28000Y301000D01*
X38000Y305641D02*
X42250Y309891D01*
X38000Y260200D02*
Y305641D01*
X20000Y343800D02*
Y345102D01*
X35000Y360102D01*
Y365960D01*
X56540Y387500D01*
X40000Y358031D02*
Y360960D01*
X36750Y347710D02*
X56540Y367500D01*
X31750Y349781D02*
X40000Y358031D01*
X222500Y179500D02*
Y213500D01*
Y179500D02*
X234000Y168000D01*
X217500Y177429D02*
X229000Y165929D01*
Y132969D02*
Y165929D01*
X234000Y135040D02*
Y168000D01*
X217500Y177429D02*
Y219697D01*
X234000Y135040D02*
X248566Y120474D01*
X229000Y132969D02*
X246495Y115474D01*
X221000Y133724D02*
Y162000D01*
Y133724D02*
X244500Y110224D01*
X616500Y148000D02*
X617500D01*
X604000Y151500D02*
X613000D01*
X616500Y148000D01*
X617500D02*
X620000Y145500D01*
Y144500D02*
Y145500D01*
X632500Y80000D02*
Y132000D01*
X620000Y144500D02*
X632500Y132000D01*
X121750Y108158D02*
X156342Y142750D01*
X121750Y64197D02*
Y108158D01*
X122625Y52375D02*
Y63322D01*
X121750Y64197D02*
X122625Y63322D01*
X540000Y37142D02*
Y54000D01*
X545000Y35071D02*
Y54000D01*
X550000Y33000D02*
Y54000D01*
X539250Y22250D02*
X550000Y33000D01*
X535108Y32250D02*
X540000Y37142D01*
X537179Y27250D02*
X545000Y35071D01*
X555000Y35000D02*
X560000Y30000D01*
X555000Y35000D02*
Y55000D01*
X384250Y60750D02*
Y69000D01*
X397750Y47250D02*
X422567D01*
X384250Y60750D02*
X397750Y47250D01*
X399750Y52750D02*
X420996D01*
X390846Y61654D02*
X399750Y52750D01*
X429750Y70000D02*
Y154976D01*
Y61504D02*
Y70000D01*
X424500Y156797D02*
X436000Y168297D01*
X422567Y47250D02*
X437500Y62183D01*
X434750Y76790D02*
X437500Y74040D01*
Y62183D02*
Y74040D01*
X422000Y76040D02*
X424500Y78540D01*
X434750Y112250D02*
X446250Y123750D01*
X429750Y70000D02*
X429750D01*
X418925Y57750D02*
X422000Y60825D01*
X434750Y76790D02*
Y112250D01*
X424500Y78540D02*
Y156797D01*
X422000Y60825D02*
Y76040D01*
X390750Y69000D02*
X390846Y68904D01*
Y61654D02*
Y68904D01*
X405710Y57750D02*
X418925D01*
X403750Y59710D02*
X405710Y57750D01*
X403750Y59710D02*
Y69000D01*
X520000Y40000D02*
Y54000D01*
X526000Y73500D02*
X549500D01*
X517750Y65250D02*
X526000Y73500D01*
X515000Y57500D02*
Y62687D01*
X517563Y65250D02*
X517750D01*
X515000Y62687D02*
X517563Y65250D01*
X505000Y57500D02*
Y66829D01*
X523742Y78500D02*
X537000D01*
X510000Y62687D02*
Y64758D01*
X525330Y83829D02*
X527500Y86000D01*
X495000Y54000D02*
Y67500D01*
X505000Y66829D02*
X522000Y83829D01*
X510000Y64758D02*
X523742Y78500D01*
X492500Y70000D02*
X495000Y67500D01*
X522000Y83829D02*
X525330D01*
X492500Y70000D02*
Y86000D01*
X489250Y64498D02*
X490000Y63748D01*
Y60000D02*
Y63748D01*
X485000Y54000D02*
Y59000D01*
X470750Y73250D02*
Y73250D01*
Y73250D02*
X485000Y59000D01*
X458000Y86000D02*
X470750Y73250D01*
X500000Y57500D02*
Y71000D01*
X510000Y57500D02*
Y62687D01*
X510000Y62687D01*
X259750Y50250D02*
Y109469D01*
X249750Y49750D02*
Y112399D01*
X246495Y115474D02*
X246675D01*
X248746Y120474D02*
X259750Y109469D01*
X248566Y120474D02*
X248746D01*
X246675Y115474D02*
X249750Y112399D01*
X242500Y42500D02*
X249750Y49750D01*
X112500Y162500D02*
X121000D01*
X104000D02*
X112500D01*
X259750Y50250D02*
X260000Y50000D01*
X165250Y142750D02*
X173000Y150500D01*
X177500D01*
X156342Y142750D02*
X165250D01*
X177500Y150500D02*
X179500Y152500D01*
X198500D01*
X54750Y149950D02*
Y301178D01*
X20000Y115200D02*
X54750Y149950D01*
X74750Y195250D02*
Y292894D01*
Y195250D02*
X90000Y180000D01*
X250000Y351540D02*
X260000Y341540D01*
X250000Y351540D02*
Y357500D01*
X265000Y328500D02*
Y352500D01*
X260000Y357500D02*
X265000Y352500D01*
X267500Y363782D02*
X270000Y361282D01*
X275250Y356657D02*
Y368210D01*
X280000Y354336D02*
X282750Y357086D01*
X275000Y356407D02*
X275250Y356657D01*
X275000Y328500D02*
Y356407D01*
X267500Y363782D02*
Y365000D01*
X270000Y328500D02*
Y361282D01*
X280000Y328500D02*
Y354336D01*
X275000Y368460D02*
X275250Y368210D01*
X275000Y368460D02*
Y372500D01*
X282750Y357086D02*
Y379750D01*
X282500Y380000D02*
X282750Y379750D01*
X290000Y362447D02*
X292500Y364947D01*
Y372500D01*
X302250Y379750D02*
X302500Y380000D01*
X295000Y360376D02*
X302250Y367626D01*
Y379750D01*
X290000Y328500D02*
Y362447D01*
X295000Y328500D02*
Y360376D01*
X441000Y166552D02*
X456250Y181802D01*
X473750Y174553D02*
Y282840D01*
X456250Y327817D02*
X468433Y340000D01*
X451250Y183873D02*
Y329888D01*
X468750Y176624D02*
Y287790D01*
X456250Y181802D02*
Y327817D01*
X453500Y161374D02*
X468750Y176624D01*
X458500Y159303D02*
X473750Y174553D01*
X451250Y329888D02*
X472362Y351000D01*
X473750Y282840D02*
X486910Y296000D01*
X436000Y168623D02*
X451250Y183873D01*
X468750Y287790D02*
X485250Y304290D01*
X490750Y316776D02*
X498776D01*
X500000Y318000D01*
X485250Y311276D02*
X490750Y316776D01*
X485250Y304290D02*
Y311276D01*
X234000Y414000D02*
Y425000D01*
X217143Y343893D02*
X218250Y345000D01*
X216500Y325000D02*
Y343250D01*
X216750Y316750D02*
Y324750D01*
Y316750D02*
X217000Y316500D01*
Y300500D02*
Y307500D01*
Y316500D01*
X216500Y325000D02*
X216750Y324750D01*
X272500Y410500D02*
Y423500D01*
X271000Y425000D02*
X272500Y423500D01*
X94750Y217750D02*
X134000Y178500D01*
X95250Y257710D02*
Y273000D01*
X94750Y273500D02*
X95250Y273000D01*
X87500Y210000D02*
Y267500D01*
X94750Y257210D02*
X95250Y257710D01*
X94750Y217750D02*
Y257210D01*
X87500Y210000D02*
X112500Y185000D01*
X79750Y202750D02*
X100000Y182500D01*
X44750Y305320D02*
X49875Y310445D01*
X44750Y190750D02*
Y305320D01*
X54750Y301178D02*
X59875Y306303D01*
X20000Y89800D02*
X59750Y129550D01*
Y299107D02*
X65820Y305176D01*
X20000Y166000D02*
X44750Y190750D01*
X49750Y303249D02*
X54875Y308374D01*
X59750Y129550D02*
Y299107D01*
X134000Y162500D02*
Y178500D01*
X65820Y310819D02*
X72500Y317500D01*
X65820Y305176D02*
Y310819D01*
X85000Y344898D02*
Y369040D01*
X77500Y344469D02*
Y372500D01*
X420500Y390000D02*
X438500D01*
X468433Y340000D02*
X500000D01*
X472362Y351000D02*
X500000D01*
X259600Y49600D02*
X260000Y50000D01*
X259200Y20000D02*
X259600Y20400D01*
Y49600D01*
X232500Y42500D02*
X233150Y41850D01*
Y20650D02*
X233800Y20000D01*
X232500Y42500D02*
X242500D01*
X233150Y20650D02*
Y41850D01*
X143356Y49000D02*
X143778Y48578D01*
Y20422D02*
X144200Y20000D01*
X143778Y20422D02*
Y48578D01*
X118356Y41500D02*
X118578Y41278D01*
Y20222D02*
Y41278D01*
Y20222D02*
X118800Y20000D01*
X374200D02*
Y20400D01*
X85000Y375960D02*
Y380000D01*
X85250Y369290D02*
Y375710D01*
X85000Y375960D02*
X85250Y375710D01*
X85000Y369040D02*
X85250Y369290D01*
X67500Y345926D02*
Y365000D01*
X46750Y336750D02*
X57500Y347500D01*
X56540Y387500D02*
X57500D01*
X40000Y360960D02*
X56540Y377500D01*
X57500D01*
X56540Y367500D02*
X57500D01*
X56540Y357500D02*
X57500D01*
X222500Y213500D02*
X229000Y220000D01*
X217500Y219697D02*
X222803Y225000D01*
X236500D01*
X229000Y220000D02*
X236500D01*
X446250Y153798D02*
X453500Y161049D01*
X458500Y158978D02*
Y159303D01*
X429750Y154976D02*
X441000Y166226D01*
X436000Y168297D02*
Y168623D01*
X451250Y151727D02*
X458500Y158978D01*
X441000Y166226D02*
Y166552D01*
X446250Y123750D02*
Y153798D01*
X451250Y121679D02*
Y151727D01*
X453500Y161049D02*
Y161374D01*
X267500Y85000D02*
X273450Y79050D01*
Y52500D02*
Y79050D01*
X284000Y425000D02*
X297500D01*
X302500Y420000D01*
X320000D01*
X134000Y145250D02*
Y162500D01*
Y145000D02*
Y145250D01*
X134000Y162500D02*
X134000Y162500D01*
X441250Y95790D02*
X442500Y94540D01*
Y80000D02*
Y94540D01*
X441250Y95790D02*
Y111679D01*
X420996Y52750D02*
X429750Y61504D01*
X441250Y111679D02*
X451250Y121679D01*
X410250Y69000D02*
Y77290D01*
X498620Y41880D02*
X508250Y32250D01*
X250000Y210000D02*
X262321Y222321D01*
X236500Y210000D02*
X250000D01*
X262321Y222321D02*
Y229821D01*
X262500Y230000D01*
X245000Y215000D02*
X252500Y222500D01*
X236500Y215000D02*
X245000D01*
X252500Y222500D02*
Y230000D01*
X535000Y44173D02*
Y54000D01*
X531500Y40000D02*
Y40673D01*
X535000Y44173D01*
X310000Y365960D02*
X310250Y365710D01*
X310000Y365960D02*
Y372500D01*
X310250Y357750D02*
Y365710D01*
X300000Y347500D02*
X310250Y357750D01*
X320000Y359891D02*
Y372500D01*
X300000Y328500D02*
Y347500D01*
X305000Y328500D02*
Y344891D01*
X320000Y359891D01*
X330000Y365000D02*
Y377500D01*
X375000Y328500D02*
Y342500D01*
X402500Y370000D01*
X330000Y365000D02*
X335770Y359230D01*
X341730D02*
X355000Y345960D01*
X335770Y359230D02*
X341730D01*
X365000Y328500D02*
Y357500D01*
X356500Y366000D02*
Y367000D01*
X354456Y369044D02*
X356500Y367000D01*
X353456Y369044D02*
X354456D01*
X356500Y366000D02*
X365000Y357500D01*
X412500Y206000D02*
X423000D01*
X320000Y171500D02*
Y179469D01*
X315000Y171500D02*
Y181540D01*
X292500Y150000D02*
X300500D01*
X292500Y150000D02*
X292500Y150000D01*
X224903Y280000D02*
X247500D01*
X307500Y185000D02*
X310000Y182500D01*
X200500Y425000D02*
X200500Y425000D01*
X221000D01*
X128000Y425000D02*
X128000Y425000D01*
X148500D01*
X486910Y296000D02*
X500000D01*
X615000Y132500D02*
X623000Y124500D01*
X289387Y69587D02*
Y84387D01*
X286150Y66350D02*
X289387Y69587D01*
X298850Y88650D02*
X302500Y85000D01*
X298850Y88650D02*
Y107500D01*
X311550D02*
X312025Y107025D01*
Y85475D02*
X312500Y85000D01*
X312025Y85475D02*
Y107025D01*
X395625Y398875D02*
Y402835D01*
X386500Y390000D02*
X387000Y390500D01*
Y399500D01*
X370800Y420000D02*
X380578Y410222D01*
X388238D02*
X395625Y402835D01*
X387000Y399500D02*
X387500Y400000D01*
X380578Y410222D02*
X388238D01*
X450750Y390750D02*
X451500Y390000D01*
X420500Y390000D02*
X420500Y390000D01*
X395625Y398875D02*
X404500Y390000D01*
X386500Y370500D02*
X401250Y385250D01*
Y386750D01*
X404500Y390000D01*
X386500Y370000D02*
Y370500D01*
X355500Y390000D02*
X355500Y390000D01*
X373500D01*
X341000Y370000D02*
Y388500D01*
X339500Y390000D02*
X341000Y388500D01*
X345000Y419600D02*
X345400Y420000D01*
X345000Y405000D02*
Y419600D01*
X339500Y399500D02*
X345000Y405000D01*
X339500Y390000D02*
Y399500D01*
X320000Y420000D02*
X321500Y418500D01*
X370000Y356427D02*
X373500Y359927D01*
Y370000D01*
X370000Y328500D02*
Y356427D01*
X377654Y68904D02*
X377750Y69000D01*
X377500Y55000D02*
X377654Y55154D01*
X416750Y69000D02*
Y81750D01*
X377654Y55154D02*
Y68904D01*
X187000Y325000D02*
X203500D01*
X230000Y310000D02*
X236500D01*
X148250Y294000D02*
X152500Y298250D01*
X115000Y294000D02*
X148250D01*
X152500Y298250D02*
Y314490D01*
Y285000D02*
Y298250D01*
Y247500D02*
X163500Y258500D01*
X152500Y285000D02*
X166000Y271500D01*
X163500Y258500D02*
X197500D01*
X166000Y271500D02*
X197500D01*
Y258500D02*
X198000D01*
X115000Y241000D02*
X151000D01*
X152500Y220510D02*
Y247500D01*
Y218010D02*
Y220510D01*
X195000Y307500D02*
X203500D01*
X200500Y268965D02*
Y271500D01*
Y268965D02*
X201964Y267500D01*
X219474D01*
X215000Y276000D02*
X215071Y276071D01*
X215000Y289000D02*
X221000D01*
X215071Y276071D02*
X220974D01*
X217000Y300500D02*
X227500Y290000D01*
X220974Y276071D02*
X224903Y280000D01*
X221000Y289000D02*
X225000Y285000D01*
X219474Y267500D02*
X226974Y275000D01*
X221545Y262500D02*
X229045Y270000D01*
X225000Y285000D02*
X236500D01*
X226974Y275000D02*
X236500D01*
X227500Y290000D02*
X236500D01*
X229045Y270000D02*
X236500D01*
X198000Y258500D02*
X200500Y261000D01*
Y261035D01*
X201964Y262500D01*
X221545D01*
X404571Y219000D02*
X412500D01*
X400571Y215000D02*
X404571Y219000D01*
X393500Y215000D02*
X400571D01*
X393500Y210000D02*
X402500D01*
X406500Y206000D01*
X412500D01*
X303500Y153000D02*
X303535D01*
X305000Y154465D02*
Y171500D01*
X303535Y153000D02*
X305000Y154465D01*
X321000Y339571D02*
Y347500D01*
Y339571D02*
X325000Y335571D01*
X260000Y328500D02*
Y341540D01*
X334000Y347500D02*
X342500D01*
X334000Y339571D02*
Y347500D01*
X330000Y335571D02*
X334000Y339571D01*
X355000Y328500D02*
Y345960D01*
X325000Y328500D02*
Y335571D01*
X330000Y328500D02*
Y335571D01*
X325000Y317500D02*
Y328500D01*
X380000Y305000D02*
X393500D01*
X380000Y305000D02*
X380000Y305000D01*
X382500Y215000D02*
X393500D01*
X422750Y314250D02*
X423000Y314500D01*
X412750Y314250D02*
X422750D01*
X412500Y314000D02*
X412750Y314250D01*
X406500Y314000D02*
X412500D01*
X402500Y310000D02*
X406500Y314000D01*
X393500Y310000D02*
X402500D01*
X402500Y310000D01*
X393500Y305000D02*
X400571D01*
X404571Y301000D01*
X412500D01*
X286150Y52500D02*
Y66350D01*
X555000Y55000D02*
X555000Y55000D01*
X623000Y81026D02*
Y124500D01*
X609500Y132500D02*
X615000D01*
X598750Y162750D02*
X602250D01*
X595250Y159250D02*
X598750Y162750D01*
X602250D02*
X604000Y164500D01*
X595250Y146750D02*
X609500Y132500D01*
X595250Y146750D02*
Y159250D01*
X612000Y83500D02*
X614500Y86000D01*
X615000D01*
X607402Y78402D02*
X612000Y83000D01*
Y83500D01*
X597000Y86000D02*
X597500D01*
X595260Y78402D02*
X607402D01*
X594500Y83500D02*
X597000Y86000D01*
X593287Y83500D02*
X594500D01*
X505000Y55000D02*
X505000D01*
X510000D02*
X510000D01*
X457500Y86000D02*
X458000D01*
X525000Y64000D02*
X528000Y67000D01*
X537000Y78500D02*
X544500Y86000D01*
X545000D01*
X530000Y66000D02*
X531000Y67000D01*
X530000Y57500D02*
Y66000D01*
X525000Y57500D02*
Y64000D01*
X549500Y73500D02*
X555000Y79000D01*
Y79000D01*
X528000Y67000D02*
X531000D01*
X520000Y49813D02*
Y54000D01*
Y55000D01*
X480150Y37850D02*
X495750Y22250D01*
X489500Y39040D02*
Y40000D01*
X490429Y37571D02*
X500750Y27250D01*
X585000Y57500D02*
Y68142D01*
X595260Y78402D01*
X580000Y70213D02*
X593287Y83500D01*
X560000Y45000D02*
Y54000D01*
Y45000D02*
X565000Y40000D01*
X615376Y73402D02*
X623000Y81026D01*
X620902Y68402D02*
X632500Y80000D01*
X580000Y55000D02*
X580000D01*
X560000Y54000D02*
Y55000D01*
X555000Y79000D02*
X562000Y86000D01*
X562500D01*
X597331Y73402D02*
X615376D01*
X595000Y57500D02*
Y64000D01*
X590000Y57500D02*
Y66071D01*
X597331Y73402D01*
X599402Y68402D02*
X620902D01*
X595000Y64000D02*
X599402Y68402D01*
X565000Y57500D02*
Y67000D01*
X580000Y57500D02*
Y70213D01*
X508250Y32250D02*
X535108D01*
X479500Y39040D02*
Y40000D01*
X500750Y27250D02*
X537179D01*
X495750Y22250D02*
X539250D01*
D12*
X604000Y164500D02*
X620000D01*
X489500Y121750D02*
X498209D01*
D13*
X360493Y113500D02*
X364750Y117757D01*
X340000Y113500D02*
X340000Y113500D01*
X360493D01*
X340000Y104000D02*
Y113500D01*
X340000Y104000D02*
X340000Y104000D01*
X412500Y219000D02*
Y227500D01*
X417500Y232500D01*
X412750Y292250D02*
Y300750D01*
X412500Y301000D02*
X412750Y300750D01*
Y292250D02*
X413000Y292000D01*
X169500Y417000D02*
X186750Y399750D01*
Y345000D02*
Y399750D01*
X163936Y422250D02*
X169186Y417000D01*
X161500Y424500D02*
Y425000D01*
Y424500D02*
X163750Y422250D01*
X169186Y417000D02*
X169500D01*
X163750Y422250D02*
X163936D01*
X446000Y348000D02*
X446000Y348000D01*
X446000Y186047D02*
Y348000D01*
X434000Y346565D02*
X440500Y340065D01*
X434000Y346565D02*
Y347000D01*
X440500Y188326D02*
Y340065D01*
X244500Y88136D02*
Y110224D01*
X87750Y115250D02*
Y125750D01*
X87500Y115000D02*
X87750Y115250D01*
Y125750D02*
X88000Y126000D01*
Y135500D01*
X206000Y77250D02*
X228500D01*
X236068Y83318D02*
X239682D01*
X228500Y76250D02*
X229000D01*
X239682Y83318D02*
X244500Y88136D01*
X229000Y76250D02*
X236068Y83318D01*
X185000Y135000D02*
X192500Y142500D01*
X209743D02*
X211500Y144257D01*
Y152500D01*
X192500Y142500D02*
X209743D01*
X134000Y145250D02*
X145250D01*
X430750Y170798D02*
X446000Y186047D01*
X425250Y173076D02*
X440500Y188326D01*
X430750Y170472D02*
Y170798D01*
X403750Y151250D02*
X425250Y172750D01*
Y173076D01*
X410250Y149972D02*
X430750Y170472D01*
X403750Y126000D02*
Y151250D01*
X410250Y126000D02*
Y149972D01*
X90000Y76500D02*
Y85000D01*
X97500Y92500D01*
Y103000D01*
X152000Y152500D02*
X155500D01*
X150250Y150750D02*
X152000Y152500D01*
X150250Y150250D02*
Y150750D01*
X145250Y145250D02*
X150250Y150250D01*
X290000Y122500D02*
X294500D01*
X304000Y132000D02*
Y132500D01*
X294500Y122500D02*
X304000Y132000D01*
X286150Y118650D02*
X290000Y122500D01*
X392000Y154186D02*
X397250Y148936D01*
Y126000D02*
Y148936D01*
X390000Y156418D02*
Y157500D01*
Y156418D02*
X392000Y154418D01*
Y154186D02*
Y154418D01*
X390750Y126000D02*
Y145436D01*
X382000Y154186D02*
X390750Y145436D01*
X380000Y156418D02*
Y157500D01*
Y156418D02*
X382000Y154418D01*
Y154186D02*
Y154418D01*
X358250Y126000D02*
Y137936D01*
X340765Y155421D02*
X358250Y137936D01*
X340765Y155421D02*
Y156735D01*
X340000Y157500D02*
X340765Y156735D01*
X362000Y154186D02*
X377750Y138436D01*
X372000Y154186D02*
X384250Y141936D01*
X372000Y154186D02*
Y154418D01*
X370000Y156418D02*
X372000Y154418D01*
X370000Y156418D02*
Y157500D01*
X360000Y156418D02*
X362000Y154418D01*
X352000Y154186D02*
Y154418D01*
X350000Y156418D02*
X352000Y154418D01*
X350000Y156418D02*
Y157500D01*
X360000Y156418D02*
Y157500D01*
X362000Y154186D02*
Y154418D01*
X352000Y154186D02*
X371250Y134936D01*
Y126000D02*
Y134936D01*
X384250Y126000D02*
Y141936D01*
X377750Y126000D02*
Y138436D01*
X415000Y113582D02*
X416750Y115332D01*
Y126000D01*
X415000Y112500D02*
Y113582D01*
X184500Y425000D02*
X184500Y425000D01*
X172500Y425000D02*
X184500D01*
X100000Y425000D02*
X112000D01*
X247500Y132500D02*
X258500D01*
X91000Y145000D02*
Y162434D01*
X104000Y145000D02*
X121484D01*
X286150Y107500D02*
Y118650D01*
X340000Y79000D02*
X354472D01*
X364750Y117757D02*
Y126000D01*
Y69000D02*
Y77243D01*
X371250Y61250D02*
Y69000D01*
X358250Y59332D02*
Y69000D01*
X365000Y55000D02*
X371250Y61250D01*
X355000Y56082D02*
X358250Y59332D01*
X355000Y55000D02*
Y56082D01*
X355972Y80500D02*
X361493D01*
X354472Y79000D02*
X355972Y80500D01*
X361493D02*
X364750Y77243D01*
X102500Y254000D02*
X115000D01*
X102500Y281000D02*
X115000D01*
X104000Y138500D02*
Y145000D01*
X91000Y138500D02*
Y145000D01*
X104000Y138500D02*
X107000Y135500D01*
X88000Y135500D02*
X91000Y138500D01*
X107000Y123500D02*
Y135500D01*
X90000Y76500D02*
X96500D01*
X99500Y79500D01*
X111250D01*
X486500Y274000D02*
X500000D01*
X205500Y76750D02*
X206000Y77250D01*
X205500Y99750D02*
X206000Y99250D01*
X228500D01*
D40*
X601000Y419000D02*
D03*
Y260000D02*
D03*
D41*
X505000Y408000D02*
D03*
D42*
Y261000D02*
D03*
D43*
X500000Y285000D02*
D03*
Y296000D02*
D03*
Y307000D02*
D03*
Y318000D02*
D03*
Y329000D02*
D03*
Y340000D02*
D03*
Y351000D02*
D03*
Y362000D02*
D03*
Y274000D02*
D03*
D49*
X218250Y345000D02*
D03*
X186750D02*
D03*
D50*
X412500Y219000D02*
D03*
Y206000D02*
D03*
X340000Y113500D02*
D03*
Y126500D02*
D03*
Y66000D02*
D03*
Y79000D02*
D03*
X115000Y294000D02*
D03*
Y281000D02*
D03*
Y254000D02*
D03*
Y241000D02*
D03*
X197500Y258500D02*
D03*
Y271500D02*
D03*
X215000Y289000D02*
D03*
Y276000D02*
D03*
X412500Y301000D02*
D03*
Y314000D02*
D03*
X163500Y112250D02*
D03*
Y99250D02*
D03*
Y64250D02*
D03*
Y77250D02*
D03*
X90000Y76500D02*
D03*
Y63500D02*
D03*
X562500Y86000D02*
D03*
Y99000D02*
D03*
X580000D02*
D03*
Y86000D02*
D03*
X597500D02*
D03*
Y99000D02*
D03*
X615000D02*
D03*
Y86000D02*
D03*
X510000Y99000D02*
D03*
Y86000D02*
D03*
X492500D02*
D03*
Y99000D02*
D03*
X475000D02*
D03*
Y86000D02*
D03*
X457500D02*
D03*
Y99000D02*
D03*
X527500Y86000D02*
D03*
Y99000D02*
D03*
X545000D02*
D03*
Y86000D02*
D03*
X478500Y330500D02*
D03*
Y317500D02*
D03*
X228500Y113250D02*
D03*
Y100250D02*
D03*
Y63250D02*
D03*
Y76250D02*
D03*
D51*
X416750Y126000D02*
D03*
X410250D02*
D03*
X403750D02*
D03*
X397250D02*
D03*
X384250D02*
D03*
X377750D02*
D03*
X371250D02*
D03*
X364750D02*
D03*
X358250D02*
D03*
X390750D02*
D03*
X416750Y69000D02*
D03*
X410250D02*
D03*
X403750D02*
D03*
X397250D02*
D03*
X390750D02*
D03*
X384250D02*
D03*
X377750D02*
D03*
X371250D02*
D03*
X364750D02*
D03*
X358250D02*
D03*
D52*
X375000Y328500D02*
D03*
X370000D02*
D03*
X365000D02*
D03*
X360000D02*
D03*
X355000D02*
D03*
X350000D02*
D03*
X345000D02*
D03*
X340000D02*
D03*
X335000D02*
D03*
X330000D02*
D03*
X325000D02*
D03*
X320000D02*
D03*
X315000D02*
D03*
X310000D02*
D03*
X305000D02*
D03*
X300000D02*
D03*
X295000D02*
D03*
X290000D02*
D03*
X285000D02*
D03*
X280000D02*
D03*
X275000D02*
D03*
X270000D02*
D03*
X265000D02*
D03*
X260000D02*
D03*
X255000D02*
D03*
Y171500D02*
D03*
X260000D02*
D03*
X265000D02*
D03*
X270000D02*
D03*
X275000D02*
D03*
X280000D02*
D03*
X285000D02*
D03*
X290000D02*
D03*
X295000D02*
D03*
X300000D02*
D03*
X305000D02*
D03*
X310000D02*
D03*
X315000D02*
D03*
X320000D02*
D03*
X325000D02*
D03*
X330000D02*
D03*
X335000D02*
D03*
X340000D02*
D03*
X345000D02*
D03*
X350000D02*
D03*
X355000D02*
D03*
X360000D02*
D03*
X365000D02*
D03*
X370000D02*
D03*
X375000D02*
D03*
D53*
X236500Y310000D02*
D03*
Y305000D02*
D03*
Y300000D02*
D03*
Y295000D02*
D03*
Y290000D02*
D03*
Y285000D02*
D03*
Y280000D02*
D03*
Y275000D02*
D03*
Y270000D02*
D03*
Y265000D02*
D03*
Y260000D02*
D03*
Y255000D02*
D03*
Y250000D02*
D03*
Y245000D02*
D03*
Y240000D02*
D03*
Y235000D02*
D03*
Y230000D02*
D03*
Y225000D02*
D03*
Y220000D02*
D03*
Y215000D02*
D03*
Y210000D02*
D03*
Y205000D02*
D03*
Y200000D02*
D03*
Y195000D02*
D03*
Y190000D02*
D03*
X393500D02*
D03*
Y195000D02*
D03*
Y200000D02*
D03*
Y205000D02*
D03*
Y210000D02*
D03*
Y215000D02*
D03*
Y220000D02*
D03*
Y225000D02*
D03*
Y230000D02*
D03*
Y235000D02*
D03*
Y240000D02*
D03*
Y245000D02*
D03*
Y250000D02*
D03*
Y255000D02*
D03*
Y260000D02*
D03*
Y265000D02*
D03*
Y270000D02*
D03*
Y275000D02*
D03*
Y280000D02*
D03*
Y285000D02*
D03*
Y290000D02*
D03*
Y295000D02*
D03*
Y300000D02*
D03*
Y305000D02*
D03*
Y310000D02*
D03*
D54*
X152500Y220510D02*
D03*
Y314490D02*
D03*
D55*
X417500Y245500D02*
D03*
Y274500D02*
D03*
D56*
X200500Y425000D02*
D03*
X184500D02*
D03*
X355500Y390000D02*
D03*
X339500D02*
D03*
X128000Y425000D02*
D03*
X112000D02*
D03*
X420500Y390000D02*
D03*
X404500D02*
D03*
D57*
X216500Y307500D02*
D03*
X203500D02*
D03*
X216500Y325000D02*
D03*
X203500D02*
D03*
X221000Y425000D02*
D03*
X234000D02*
D03*
X373500Y390000D02*
D03*
X386500D02*
D03*
X284000Y425000D02*
D03*
X271000D02*
D03*
X301000Y150000D02*
D03*
X314000D02*
D03*
X161500Y425000D02*
D03*
X148500D02*
D03*
X354000Y370000D02*
D03*
X341000D02*
D03*
X373500D02*
D03*
X386500D02*
D03*
X321000Y347500D02*
D03*
X334000D02*
D03*
X451500Y390000D02*
D03*
X438500D02*
D03*
X121000Y162500D02*
D03*
X134000D02*
D03*
X104000Y145000D02*
D03*
X91000D02*
D03*
X258500Y132500D02*
D03*
X271500D02*
D03*
X91000Y162500D02*
D03*
X104000D02*
D03*
X211500Y152500D02*
D03*
X198500D02*
D03*
X291000Y132500D02*
D03*
X304000D02*
D03*
X121000Y145000D02*
D03*
X134000D02*
D03*
X588500Y122500D02*
D03*
X601500D02*
D03*
X620000Y145000D02*
D03*
X633000D02*
D03*
Y164500D02*
D03*
X620000D02*
D03*
X506000Y170000D02*
D03*
X493000D02*
D03*
D58*
X311550Y107500D02*
D03*
X298850D02*
D03*
X286150D02*
D03*
X273450D02*
D03*
X311550Y52500D02*
D03*
X298850D02*
D03*
X286150D02*
D03*
D59*
X273450D02*
D03*
D60*
X155500Y152500D02*
D03*
X179500D02*
D03*
D61*
X107000Y126000D02*
D03*
X88000Y126000D02*
D03*
X97500Y103000D02*
D03*
D62*
X132000Y70000D02*
D03*
X109000Y60500D02*
D03*
X109000Y79500D02*
D03*
D63*
X604000Y164500D02*
D03*
Y151500D02*
D03*
X586000Y158000D02*
D03*
D64*
X512000Y121750D02*
D03*
Y153250D02*
D03*
X467000D02*
D03*
Y121750D02*
D03*
X489500D02*
D03*
Y153250D02*
D03*
D65*
X460500Y19500D02*
D03*
X624500D02*
D03*
D66*
X560000Y54000D02*
D03*
X555000D02*
D03*
X550000D02*
D03*
X545000D02*
D03*
X535000D02*
D03*
X600000D02*
D03*
X595000D02*
D03*
X590000D02*
D03*
X585000D02*
D03*
X580000D02*
D03*
X575000D02*
D03*
X570000D02*
D03*
X565000D02*
D03*
X540000D02*
D03*
X505000D02*
D03*
X500000D02*
D03*
X495000D02*
D03*
X490000D02*
D03*
X530000D02*
D03*
X525000D02*
D03*
X520000D02*
D03*
X515000D02*
D03*
X510000D02*
D03*
X485000D02*
D03*
D67*
X550000Y123750D02*
D03*
Y156250D02*
D03*
D68*
X186500Y99750D02*
D03*
X205500Y76750D02*
D03*
X186500D02*
D03*
X196000D02*
D03*
X205500Y99750D02*
D03*
D69*
X75000Y303750D02*
Y304340D01*
X67250Y296000D02*
X75000Y303750D01*
Y304340D02*
X82750Y312090D01*
Y331238D01*
X106946Y353941D02*
X108004Y355000D01*
X67550Y64450D02*
X80000Y52000D01*
Y20000D02*
Y52000D01*
X67500Y64400D02*
Y90001D01*
X20000Y64400D02*
X67500D01*
X417500Y232500D02*
Y257500D01*
X186750Y345000D02*
X197500D01*
X67500Y150000D02*
Y191893D01*
Y125502D02*
Y150000D01*
X82750Y331238D02*
X106200Y354688D01*
X67250Y192143D02*
X67500Y191893D01*
X67250Y192143D02*
Y296000D01*
X67250Y125252D02*
X67500Y125502D01*
X67250Y90251D02*
Y125252D01*
Y90251D02*
X67500Y90001D01*
X432750Y215750D02*
Y275000D01*
X423000Y206000D02*
X432750Y215750D01*
X417500Y257500D02*
X417500Y257500D01*
X417500Y245500D02*
Y257500D01*
X432750Y275000D02*
Y284750D01*
X432250Y274500D02*
X432750Y275000D01*
X417500Y274500D02*
X432250D01*
X423000Y294500D02*
Y314500D01*
Y294500D02*
X432750Y284750D01*
X108004Y355000D02*
X117500D01*
X423000Y314500D02*
Y347000D01*
X422500Y347500D02*
X423000Y347000D01*
Y183000D02*
Y206000D01*
X409115Y169115D02*
X423000Y183000D01*
X186750Y345000D02*
X187250Y345500D01*
X177500Y345000D02*
X186750D01*
D70*
X325000Y103000D02*
Y138000D01*
X291000Y132500D02*
Y133000D01*
X289250Y134750D02*
X291000Y133000D01*
X282500Y141000D02*
X288750Y134750D01*
X272000Y141000D02*
X282500D01*
X288750Y134750D02*
X289250D01*
X271500Y140500D02*
X272000Y141000D01*
X271500Y132000D02*
Y140500D01*
X325000Y103000D02*
X340000Y88000D01*
Y79000D02*
Y88000D01*
Y79000D02*
X340000Y79000D01*
X500000Y71000D02*
Y76500D01*
X509500Y86000D01*
X510000D01*
X475750Y77998D02*
Y85750D01*
Y77998D02*
X489250Y64498D01*
X457000Y115500D02*
X466250Y106250D01*
Y93715D02*
Y106250D01*
X457000Y115500D02*
Y131314D01*
X511250Y121000D02*
X513000D01*
X518750Y115250D01*
X515784Y90750D02*
X518750Y93715D01*
X515250Y90750D02*
X515784D01*
X510500Y86000D02*
X515250Y90750D01*
X518750Y93715D02*
Y115250D01*
X457000Y131314D02*
X467000Y141314D01*
X469750Y90750D02*
X474500Y86000D01*
X469216Y90750D02*
X469750D01*
X466250Y93715D02*
X469216Y90750D01*
X467000Y141314D02*
Y153250D01*
X474500Y86000D02*
X475000D01*
X271500Y132000D02*
X273450Y130050D01*
Y107500D02*
Y130050D01*
X588500Y122000D02*
Y122500D01*
X580500Y86000D02*
X585250Y90750D01*
X585785D02*
X588750Y93715D01*
X585250Y90750D02*
X585785D01*
X588750Y93715D02*
Y122000D01*
X550000Y123750D02*
X551250Y122500D01*
X511250Y121000D02*
X512000Y121750D01*
X531000Y67000D02*
X531750Y67750D01*
X551882D01*
X561882Y77750D02*
X571250D01*
X579500Y86000D01*
X551882Y67750D02*
X561882Y77750D01*
D71*
X349459Y122000D02*
X350000D01*
X346209Y125250D02*
X349459Y122000D01*
X340000Y126500D02*
X341250Y125250D01*
X346209D01*
X330000Y66000D02*
X340000D01*
X186750Y311978D02*
Y345000D01*
X422500Y348041D02*
X425000Y350541D01*
X422500Y347500D02*
Y348041D01*
X425000Y350728D02*
X451500Y377228D01*
X425000Y350541D02*
Y350728D01*
X451500Y377228D02*
Y390000D01*
X478500Y329000D02*
X500000D01*
X121847Y324347D02*
X121847D01*
X102500Y281000D02*
Y304772D01*
X121847Y324347D02*
Y324347D01*
X102500Y304772D02*
X121961Y324233D01*
X462500Y321250D02*
X471750Y330500D01*
X462500Y179213D02*
Y321250D01*
X447250Y163963D02*
X462500Y179213D01*
X471750Y330500D02*
X478500D01*
Y309041D02*
Y317500D01*
X477500Y307500D02*
Y308041D01*
X478500Y309041D01*
X121847Y324347D02*
X121961Y324233D01*
X102500Y227500D02*
X132500Y197500D01*
X102500Y254000D02*
Y281000D01*
X102500Y227500D02*
Y254000D01*
X132500Y197500D02*
X142500Y187500D01*
X440742Y402500D02*
X450250Y392991D01*
X413700Y402500D02*
X440742D01*
X396200Y420000D02*
X413700Y402500D01*
X450250Y391250D02*
X450750Y390750D01*
X450250Y391250D02*
Y392991D01*
X160000Y187500D02*
X171059Y198559D01*
Y206059D02*
X217500Y252500D01*
X171059Y198559D02*
Y206059D01*
X142500Y187500D02*
X160000D01*
X121847Y324347D02*
X142500Y345000D01*
X162500D01*
X447250Y163637D02*
Y163963D01*
X437500Y153887D02*
X447250Y163637D01*
X437500Y140000D02*
Y153887D01*
X311550Y52500D02*
Y66009D01*
X312500Y66959D01*
Y67500D01*
X500000Y307000D02*
X514500D01*
X162500Y345000D02*
X175000Y332500D01*
Y302500D02*
Y332500D01*
X186000Y311228D02*
X186750Y311978D01*
X175000Y302500D02*
X195000Y282500D01*
X186000Y303772D02*
Y311228D01*
Y303772D02*
X198272Y291500D01*
X198728D01*
X201228Y289000D01*
X215000D01*
X163500Y88250D02*
Y99250D01*
Y77250D02*
Y88250D01*
X196000D01*
X597500Y99000D02*
Y107917D01*
X615000Y99000D02*
Y107917D01*
X587500Y132500D02*
X587883Y132117D01*
X601500Y122500D02*
X610000D01*
X587883Y123117D02*
X588500Y122500D01*
X601500Y122500D02*
X601500Y122500D01*
X562500Y99000D02*
Y107917D01*
X580000Y99000D02*
Y107917D01*
X527500Y99000D02*
Y107917D01*
X545000Y99000D02*
Y107917D01*
X475000Y99000D02*
X475500D01*
X449041D02*
X457500D01*
X475000D02*
X475000D01*
Y104988D01*
X475500Y99000D02*
X476750Y100250D01*
X475000Y104988D02*
X477929Y107917D01*
X492500Y99000D02*
Y107917D01*
X510000Y99000D02*
Y107917D01*
X477929D02*
X492500D01*
X579500Y86000D02*
X580000D01*
X196000Y65250D02*
Y66250D01*
Y76750D01*
X219228Y111250D02*
X221228Y113250D01*
X196000Y110250D02*
X197000Y111250D01*
X219228D01*
X196000Y99250D02*
Y110250D01*
Y88250D02*
Y99250D01*
X221228Y113250D02*
X228500D01*
X196000Y65250D02*
X198000Y63250D01*
X228500D01*
X494041Y261000D02*
X505000D01*
X490541Y257500D02*
X494041Y261000D01*
X490000Y257500D02*
X490541D01*
X186047Y100203D02*
X186500Y99750D01*
X186047Y76297D02*
X186500Y76750D01*
X196000D02*
Y88250D01*
D72*
X77000Y56000D02*
X84500Y63500D01*
X100000Y425000D02*
X100000Y425000D01*
X580000Y140000D02*
X587500Y132500D01*
X481000Y136000D02*
X489500Y144500D01*
X467000Y130000D02*
X473000Y136000D01*
X467000Y121750D02*
Y130000D01*
X473000Y136000D02*
X481000D01*
X96500Y63500D02*
X99500Y60500D01*
X109000D01*
X84500Y63500D02*
X90000D01*
X96500D01*
X633000Y164500D02*
X641500D01*
X587883Y123117D02*
Y132117D01*
X633000Y145000D02*
X641500D01*
X506000Y169500D02*
X512000Y163500D01*
Y153250D02*
Y163500D01*
X489500Y144500D02*
Y153250D01*
Y166000D02*
X493000Y169500D01*
X512000Y153250D02*
X535458D01*
X550000Y156250D02*
X551250Y155000D01*
X506000Y169500D02*
Y170000D01*
X493000Y169500D02*
Y170000D01*
X489500Y153250D02*
Y166000D01*
X551250Y158000D02*
X586000D01*
X551250Y122500D02*
X588500D01*
D73*
X221250Y78750D02*
D03*
D74*
X221250Y97875D02*
D03*
D75*
X196000Y84750D02*
D03*
D76*
X421600Y420000D02*
D03*
X396200D02*
D03*
X370800D02*
D03*
X345400D02*
D03*
X169600Y20000D02*
D03*
X144200D02*
D03*
X118800D02*
D03*
X233800D02*
D03*
X259200D02*
D03*
X284600D02*
D03*
X399600D02*
D03*
X374200D02*
D03*
X348800D02*
D03*
X630000Y230400D02*
D03*
X54600Y20000D02*
D03*
X20000Y39000D02*
D03*
Y64400D02*
D03*
Y89800D02*
D03*
Y115200D02*
D03*
Y140600D02*
D03*
Y166000D02*
D03*
Y191400D02*
D03*
Y216800D02*
D03*
Y242200D02*
D03*
Y267600D02*
D03*
Y293000D02*
D03*
Y318400D02*
D03*
Y343800D02*
D03*
Y369200D02*
D03*
Y394600D02*
D03*
D77*
X320000Y420000D02*
D03*
X195000Y20000D02*
D03*
X310000D02*
D03*
X425000D02*
D03*
X80000D02*
D03*
D78*
X630000Y205000D02*
D03*
X20000Y420000D02*
D03*
D79*
X102000Y305000D02*
D03*
X103000Y227000D02*
D03*
X106000Y329000D02*
D03*
X123000Y343000D02*
D03*
X90000Y297000D02*
D03*
X84000Y289000D02*
D03*
X253000Y143000D02*
D03*
X325000Y137500D02*
D03*
X350000Y122000D02*
D03*
X272000Y141000D02*
D03*
X10000Y103000D02*
D03*
X9000Y356000D02*
D03*
Y229000D02*
D03*
X281000Y312000D02*
D03*
X282000Y266000D02*
D03*
X329000D02*
D03*
X331000Y231000D02*
D03*
X278000Y229000D02*
D03*
X399000Y332000D02*
D03*
X377000Y262000D02*
D03*
X340000Y104000D02*
D03*
Y88000D02*
D03*
X330000Y66000D02*
D03*
X101000Y46000D02*
D03*
X390000Y91000D02*
D03*
X331000Y207000D02*
D03*
X321000D02*
D03*
X413000Y292000D02*
D03*
X537000Y189000D02*
D03*
X586000D02*
D03*
X638000D02*
D03*
X486000D02*
D03*
X396000Y169000D02*
D03*
X455000Y356000D02*
D03*
X253000Y431000D02*
D03*
X40000Y429000D02*
D03*
X106200Y354688D02*
D03*
X221000Y162000D02*
D03*
X446000Y348000D02*
D03*
X434000Y347000D02*
D03*
X428000Y376000D02*
D03*
X122625Y52375D02*
D03*
X560000Y30000D02*
D03*
X437500Y62183D02*
D03*
X429750Y70000D02*
D03*
X520000Y40000D02*
D03*
X112500Y162500D02*
D03*
X87500Y115000D02*
D03*
X250000Y357500D02*
D03*
X260000D02*
D03*
X267500Y365000D02*
D03*
X275000Y372500D02*
D03*
X282500Y380000D02*
D03*
X292500Y372500D02*
D03*
X302500Y380000D02*
D03*
X417500Y232500D02*
D03*
Y257500D02*
D03*
X477500Y307500D02*
D03*
X242500Y327500D02*
D03*
X217500Y410000D02*
D03*
X87500Y267500D02*
D03*
X95000Y327500D02*
D03*
X72500Y317500D02*
D03*
X422500Y347500D02*
D03*
X260000Y50000D02*
D03*
X232500Y42500D02*
D03*
X143356Y49000D02*
D03*
X147500Y65000D02*
D03*
X118356Y41500D02*
D03*
X182500Y217500D02*
D03*
X85000Y380000D02*
D03*
X77500Y372500D02*
D03*
X67500Y365000D02*
D03*
X57500Y387500D02*
D03*
Y377500D02*
D03*
Y367500D02*
D03*
Y357500D02*
D03*
Y347500D02*
D03*
X117500Y355000D02*
D03*
X122500Y325000D02*
D03*
X267500Y85000D02*
D03*
X272500Y410500D02*
D03*
X442500Y80000D02*
D03*
X400000Y100000D02*
D03*
X262500Y230000D02*
D03*
X252500D02*
D03*
X100000Y182500D02*
D03*
X112500Y185000D02*
D03*
X90000Y180000D02*
D03*
X217000Y316500D02*
D03*
X310000Y372500D02*
D03*
X320000D02*
D03*
X330000Y377500D02*
D03*
X177500Y345000D02*
D03*
X197500D02*
D03*
X402500Y370000D02*
D03*
X67500Y150000D02*
D03*
X390000Y157500D02*
D03*
X350000D02*
D03*
X360000D02*
D03*
X370000D02*
D03*
X380000D02*
D03*
X340000D02*
D03*
X292500Y150000D02*
D03*
X415000Y112500D02*
D03*
X172500Y425000D02*
D03*
X100000D02*
D03*
X580000Y140000D02*
D03*
X437500D02*
D03*
X247500Y132500D02*
D03*
X312500Y67500D02*
D03*
X289387Y84387D02*
D03*
X302500Y85000D02*
D03*
X312500D02*
D03*
X387500Y400000D02*
D03*
X355000Y55000D02*
D03*
X365000D02*
D03*
X376500D02*
D03*
X416750Y81750D02*
D03*
X195000Y282500D02*
D03*
X102500Y254000D02*
D03*
X102500Y281000D02*
D03*
X162500Y345000D02*
D03*
X195000Y307500D02*
D03*
X217500Y252500D02*
D03*
X247500Y280000D02*
D03*
X325000Y317500D02*
D03*
X307500Y185000D02*
D03*
X342500Y347500D02*
D03*
X382500Y215000D02*
D03*
X409115Y169115D02*
D03*
X380000Y305000D02*
D03*
X423000Y314500D02*
D03*
X163500Y88250D02*
D03*
X615000Y107917D02*
D03*
X610000Y122500D02*
D03*
X641500Y145000D02*
D03*
Y164500D02*
D03*
X597500Y107917D02*
D03*
X587500Y132500D02*
D03*
X562500Y107917D02*
D03*
X527500D02*
D03*
X545000D02*
D03*
X580000D02*
D03*
X449000Y99000D02*
D03*
X492500Y107917D02*
D03*
X510000D02*
D03*
X499500Y121500D02*
D03*
X479500Y40000D02*
D03*
X565000Y68000D02*
D03*
X499500Y40000D02*
D03*
X489500D02*
D03*
X531500D02*
D03*
X565000D02*
D03*
X157500Y125000D02*
D03*
X196000Y99250D02*
D03*
X490000Y257500D02*
D03*
X640000Y312500D02*
D03*
X585000Y367500D02*
D03*
Y312500D02*
D03*
X535000Y367500D02*
D03*
Y312500D02*
D03*
X580000Y262500D02*
D03*
X640000Y367500D02*
D03*
Y252500D02*
D03*
X535000Y262500D02*
D03*
Y422500D02*
D03*
X580000D02*
D03*
X640000D02*
D03*
X490000Y377500D02*
D03*
Y422500D02*
D03*
X196000Y110250D02*
D03*
Y66250D02*
D03*
X167500Y125000D02*
D03*
X514500Y307000D02*
D03*
X486500Y274000D02*
D03*
X196000Y88250D02*
D03*
M02*
