G04*
G04 #@! TF.GenerationSoftware,Altium Limited,Altium Designer,21.5.1 (32)*
G04*
G04 Layer_Color=16711935*
%FSLAX44Y44*%
%MOMM*%
G71*
G04*
G04 #@! TF.SameCoordinates,22C534E7-CE6D-4446-A7CC-E28F4763ED6C*
G04*
G04*
G04 #@! TF.FilePolarity,Negative*
G04*
G01*
G75*
%ADD10C,0.2000*%
%ADD45C,1.6000*%
%ADD46R,1.6000X1.6000*%
%ADD47R,1.6000X1.6000*%
%ADD48C,0.1000*%
D10*
X0Y0D02*
Y440000D01*
Y0D02*
X650000D01*
X0Y440000D02*
X650000D01*
Y0D02*
Y440000D01*
D45*
X421600Y420000D02*
D03*
X396200D02*
D03*
X370800D02*
D03*
X345400D02*
D03*
X169600Y20000D02*
D03*
X144200D02*
D03*
X118800D02*
D03*
X233800D02*
D03*
X259200D02*
D03*
X284600D02*
D03*
X399600D02*
D03*
X374200D02*
D03*
X348800D02*
D03*
X630000Y230400D02*
D03*
X54600Y20000D02*
D03*
X20000Y39000D02*
D03*
Y64400D02*
D03*
Y89800D02*
D03*
Y115200D02*
D03*
Y140600D02*
D03*
Y166000D02*
D03*
Y191400D02*
D03*
Y216800D02*
D03*
Y242200D02*
D03*
Y267600D02*
D03*
Y293000D02*
D03*
Y318400D02*
D03*
Y343800D02*
D03*
Y369200D02*
D03*
Y394600D02*
D03*
D46*
X320000Y420000D02*
D03*
X195000Y20000D02*
D03*
X310000D02*
D03*
X425000D02*
D03*
X80000D02*
D03*
D47*
X630000Y205000D02*
D03*
X20000Y420000D02*
D03*
D48*
X605000Y370000D02*
D03*
Y290000D02*
D03*
M02*
