M48
;Layer_Color=9474304
;FILE_FORMAT=4:4
METRIC,TZ
;TYPE=PLATED
T1F00S00C0.3000
T2F00S00C0.9000
;TYPE=NON_PLATED
T3F00S00C1.0000
%
T01
X10000Y103000
X87500Y115000
X67500Y150000
X90000Y180000
X100000Y182500
X112500Y185000
Y162500
X103000Y227000
X102500Y254000
X102500Y281000
X102000Y305000
X90000Y297000
X84000Y289000
X87500Y267500
X72500Y317500
X95000Y327500
X106000Y329000
X122500Y325000
X9000Y229000
X157500Y125000
X167500Y125000
X163500Y88250
X147500Y65000
X143356Y49000
X122625Y52375
X118356Y41500
X101000Y46000
X196000Y66250
Y88250
Y99250
Y110250
X247500Y132500
X253000Y143000
X272000Y141000
X292500Y150000
X325000Y137500
X340000Y157500
X350000
X360000
X370000
X380000
X390000
X396000Y169000
X409115Y169115
X437500Y140000
X415000Y112500
X400000Y100000
X390000Y91000
X416750Y81750
X429750Y70000
X437500Y62183
X442500Y80000
X449000Y99000
X492500Y107917
X510000
X527500
X545000
X562500
X565000Y68000
Y40000
X560000Y30000
X531500Y40000
X520000Y40000
X499500Y40000
X489500
X479500
X499500Y121500
X486000Y189000
X537000
X535000Y262500
X490000Y257500
X486500Y274000
X477500Y307500
X514500Y307000
X535000Y312500
X423000Y314500
X413000Y292000
X417500Y257500
Y232500
X382500Y215000
X377000Y262000
X380000Y305000
X399000Y332000
X325000Y317500
X281000Y312000
X282000Y266000
X278000Y229000
X262500Y230000
X252500
X247500Y280000
X242500Y327500
X217000Y316500
X195000Y307500
X195000Y282500
X217500Y252500
X182500Y217500
X221000Y162000
X307500Y185000
X321000Y207000
X331000
Y231000
X329000Y266000
X350000Y122000
X340000Y104000
Y88000
X312500Y85000
X302500
X289387Y84387
X267500Y85000
X260000Y50000
X232500Y42500
X312500Y67500
X330000Y66000
X355000Y55000
X365000
X376500
X580000Y107917
X597500
X615000
X610000Y122500
X587500Y132500
X580000Y140000
X586000Y189000
X638000
X641500Y164500
Y145000
X640000Y252500
Y312500
X585000
X580000Y262500
X585000Y367500
X640000
Y422500
X580000
X535000
X490000
Y377500
X535000Y367500
X455000Y356000
X446000Y348000
X434000Y347000
X422500Y347500
X428000Y376000
X402500Y370000
X387500Y400000
X330000Y377500
X320000Y372500
X310000
X302500Y380000
X292500Y372500
X275000
X267500Y365000
X260000Y357500
X250000
X282500Y380000
X272500Y410500
X253000Y431000
X217500Y410000
X197500Y345000
X177500
X342500Y347500
X162500Y345000
X123000Y343000
X117500Y355000
X106200Y354688
X85000Y380000
X77500Y372500
X67500Y365000
X57500Y367500
Y377500
Y387500
Y357500
Y347500
X9000Y356000
X40000Y429000
X100000Y425000
X172500
T02
X20000Y39000
Y64400
Y89800
Y115200
Y140600
Y166000
Y191400
Y216800
Y242200
Y267600
Y293000
Y318400
X54600Y20000
X80000
X118800
X144200
X169600
X195000
X233800
X259200
X284600
X310000
X348800
X374200
X399600
X425000
X630000Y205000
Y230400
X421600Y420000
X396200
X370800
X345400
X320000
X20000
Y394600
Y369200
Y343800
T03
X605000Y290000
Y370000
M30
